<svg width="37" height="65" viewBox="0 0 37 65" fill="none" xmlns="http://www.w3.org/2000/svg">
<g clip-path="url(#clip0_75124_6667)">
<path d="M36.0643 7.62821V57.3718C36.0643 57.5721 35.9832 57.7638 35.8379 57.8983C35.6002 58.1243 35.3766 58.4047 35.1753 58.7338C34.563 59.7553 34.3813 60.9026 34.3534 61.1029C34.208 64.1216 24.1128 64.9285 18.1328 64.9285C12.1473 64.9285 2.03248 64.1187 1.91226 61.0972C1.8899 60.9169 1.71377 59.7638 1.09033 58.7309C0.894635 58.4047 0.673776 58.1243 0.433347 57.9011C0.287972 57.7638 0.204102 57.5721 0.204102 57.3718V7.63107C0.204102 7.52806 0.226467 7.43364 0.262811 7.34494C0.265607 7.33636 0.271198 7.33063 0.273994 7.32491C0.290768 7.28771 0.310337 7.25338 0.332703 7.2219C0.34109 7.2076 0.349477 7.19901 0.357864 7.18757C0.377434 7.16182 0.399799 7.13607 0.42496 7.11318C0.427756 7.11031 0.430552 7.10459 0.433347 7.10173C0.676572 6.87569 0.897431 6.59814 1.09033 6.27482C1.76689 5.15319 1.91506 3.8885 1.91506 3.87419C1.91785 3.86275 1.92345 3.84844 1.92345 3.837C2.18904 0.869834 12.1892 0.0715332 18.1328 0.0715332C24.0792 0.0715332 34.0766 0.869834 34.3422 3.837C34.345 3.84844 34.3506 3.85989 34.3506 3.87419C34.3534 3.88564 34.5099 5.16177 35.1781 6.27196C35.3682 6.5867 35.5835 6.86138 35.8183 7.08456L35.8295 7.09601C35.8323 7.09887 35.8351 7.10173 35.8379 7.10459L35.8407 7.10745C35.8714 7.13893 35.8994 7.1704 35.9273 7.2076C35.9329 7.21332 35.9357 7.22191 35.9413 7.23049C35.9609 7.26196 35.9804 7.29344 35.9972 7.32777C36 7.33636 36.0056 7.34494 36.0084 7.35639C36.0224 7.39072 36.0336 7.42792 36.0419 7.46512C36.0447 7.4737 36.0475 7.48228 36.0503 7.49087C36.0503 7.49659 36.0531 7.50517 36.0559 7.5109C36.0615 7.55095 36.0643 7.58815 36.0643 7.62821ZM34.6693 56.9741L34.6665 9.38218C34.6581 9.3879 34.6497 9.39077 34.6413 9.39649C34.5239 9.45658 34.3925 9.51952 34.2555 9.58247C34.18 9.61681 34.085 9.65687 33.9815 9.69692C33.839 9.75701 33.6796 9.81424 33.5091 9.87432C33.5007 9.87718 33.4923 9.88005 33.4839 9.88291C32.5921 10.2005 31.5297 10.4609 30.3835 10.6726C30.0312 10.7384 29.6706 10.7985 29.3016 10.8557C28.776 10.9416 28.2224 11.0217 27.6325 11.0932L27.2635 11.1362C27.0231 11.1676 26.7715 11.1962 26.5143 11.222C26.4248 11.2306 26.3353 11.242 26.2431 11.2477C26.1396 11.2592 26.039 11.2706 25.9356 11.2792C25.6448 11.3078 25.3429 11.3364 25.0409 11.3593L24.7809 11.3794C24.5629 11.3965 24.342 11.4137 24.1212 11.4309C23.9758 11.4423 23.8108 11.4509 23.6459 11.4623C23.4977 11.4709 23.3384 11.4824 23.1734 11.491C22.8603 11.511 22.5332 11.5282 22.2061 11.5425C21.893 11.5568 21.5799 11.5682 21.2584 11.5797C20.8139 11.5968 20.3638 11.6083 19.9081 11.6169C19.676 11.6226 19.4412 11.6254 19.2036 11.6283H19.1365C18.8038 11.6312 18.4683 11.634 18.1328 11.634C17.5597 11.634 6.9417 11.6054 2.32323 9.70551C2.32043 9.70551 2.32043 9.70551 2.32043 9.70551C2.06043 9.59964 1.82001 9.48805 1.60194 9.36788V57.017C1.60753 57.017 2.03248 57.9097 6.42449 58.7023C9.59759 59.2746 13.7548 59.5893 18.1328 59.5893C20.8586 59.5893 23.5676 59.4634 25.9803 59.223C26.039 59.2173 26.0949 59.2116 26.1508 59.2059C26.2962 59.1916 26.4388 59.1801 26.5786 59.1601C26.6065 59.1601 26.6345 59.1544 26.6624 59.1515C30.7274 58.7052 32.8577 58.0642 33.8725 57.5807C33.8753 57.5778 33.8753 57.5778 33.8781 57.5778C33.9228 57.5549 33.9676 57.5349 34.0095 57.512C34.0151 57.5091 34.0207 57.5063 34.0263 57.5034C34.0626 57.4834 34.0989 57.4662 34.1297 57.449C34.1409 57.4433 34.1493 57.4376 34.1577 57.4319C34.1856 57.4176 34.2136 57.4004 34.2387 57.3861C34.2499 57.3775 34.2611 57.3718 34.2695 57.3661C34.2919 57.3518 34.3142 57.3375 34.3338 57.326C34.345 57.3174 34.3562 57.3088 34.3673 57.3003C34.3841 57.2917 34.4009 57.2802 34.4149 57.2688C34.426 57.2602 34.4372 57.2516 34.4484 57.243C34.4596 57.2344 34.4736 57.223 34.4848 57.2144C34.4959 57.2058 34.5043 57.1973 34.5155 57.1887C34.5239 57.1801 34.5351 57.1715 34.5435 57.1658L34.5686 57.14C34.577 57.1314 34.5826 57.1257 34.5882 57.1171C34.5966 57.1086 34.605 57.1 34.6106 57.0914C34.6162 57.0857 34.6217 57.0799 34.6245 57.0742C34.6301 57.0685 34.6357 57.0599 34.6413 57.0513C34.6441 57.0456 34.6497 57.0399 34.6525 57.037C34.6553 57.0284 34.6581 57.0227 34.6609 57.017C34.6637 57.0113 34.6665 57.0055 34.6665 57.0027C34.6665 56.9941 34.6693 56.9827 34.6693 56.9741ZM34.5267 7.77413C34.3338 7.54809 34.1549 7.2963 33.9871 7.02448C33.6824 6.51517 33.4643 5.98583 33.3078 5.51657C33.2966 5.5223 33.2826 5.53088 33.2686 5.53946C33.1931 5.58811 33.1121 5.63389 33.0282 5.68253C33.003 5.69684 32.9779 5.70828 32.9527 5.72259C32.8493 5.77981 32.743 5.83418 32.6284 5.88568C32.6144 5.8914 32.5977 5.89999 32.5837 5.90571C32.4802 5.95149 32.3712 6.00013 32.2594 6.04591C32.2258 6.05736 32.1923 6.07167 32.1587 6.08597C32.0274 6.13748 31.896 6.18612 31.7534 6.23476C30.9874 6.50372 30.0676 6.73835 29.0248 6.94436C28.3846 7.07312 27.6996 7.18757 26.9728 7.28771C26.928 7.2963 26.8805 7.30202 26.833 7.30774C26.053 7.41647 25.2255 7.50517 24.3616 7.58243C23.3635 7.67113 22.3179 7.7398 21.236 7.78272C20.2296 7.82278 19.1924 7.84567 18.1328 7.84567C12.4967 7.84567 7.40578 7.2448 4.51504 6.23476C4.37246 6.18612 4.23827 6.13748 4.10967 6.08597C4.07612 6.07167 4.04257 6.05736 4.00902 6.04591C3.8972 6.00013 3.78817 5.95149 3.68473 5.90571C3.67075 5.89999 3.65397 5.8914 3.63999 5.88568C3.52537 5.83418 3.41914 5.77981 3.3157 5.72259C3.29053 5.71114 3.26537 5.69684 3.24021 5.68253C3.15634 5.63675 3.07806 5.58811 3.00258 5.54233C2.9886 5.53374 2.97183 5.52516 2.96064 5.51657C2.80688 5.98583 2.58882 6.5123 2.28129 7.02161C2.11635 7.2963 1.93463 7.55095 1.73893 7.77986C2.06323 8.06599 3.12 8.72122 6.42729 9.31637C9.59759 9.88863 13.7576 10.2034 18.1328 10.2034C19.1896 10.2034 20.2296 10.1833 21.2472 10.149C21.4764 10.1404 21.6973 10.1318 21.9182 10.1204C22.03 10.1175 22.1418 10.1118 22.2508 10.1061C22.536 10.0946 22.8184 10.0803 23.0951 10.0603C23.2545 10.0517 23.4083 10.046 23.5592 10.0346C23.6179 10.0317 23.6711 10.026 23.727 10.0231C23.7969 10.0202 23.8668 10.0145 23.9394 10.0088C23.9646 10.0059 23.9898 10.0059 24.0149 10.0031C24.247 9.98878 24.4622 9.97161 24.6747 9.95444L24.9123 9.93441C24.9207 9.93441 24.9319 9.93441 24.9431 9.93155C25.2338 9.91152 25.5246 9.88291 25.807 9.85429C26.0027 9.83713 26.1872 9.8171 26.3717 9.79707C26.6205 9.77132 26.8609 9.74843 27.0986 9.71695L27.434 9.67689C27.4816 9.67117 27.5291 9.66545 27.5766 9.65973C27.7416 9.63684 27.9037 9.61681 28.0631 9.59678C28.1693 9.57961 28.2727 9.5653 28.3762 9.551C28.474 9.53669 28.5719 9.52238 28.6669 9.50808C28.8067 9.48805 28.9437 9.46516 29.0807 9.44513C29.1478 9.43368 29.2149 9.42224 29.2792 9.41366C29.3798 9.39649 29.4777 9.37932 29.5755 9.36215C29.693 9.34212 29.8132 9.31923 29.9278 9.2992L29.9837 9.29062C30.1123 9.26487 30.2437 9.24198 30.3667 9.21623C30.3975 9.2105 30.431 9.20478 30.4618 9.1962C30.5121 9.18761 30.5568 9.17903 30.6043 9.16758C30.677 9.15328 30.7497 9.13897 30.8224 9.1218C30.8839 9.11036 30.9426 9.09605 31.0013 9.08461C31.0628 9.0703 31.116 9.05886 31.1719 9.04741C31.2026 9.03883 31.2362 9.0331 31.2669 9.02452C31.32 9.01307 31.3704 8.99877 31.4207 8.98732C31.6583 8.93296 31.8736 8.87859 32.0777 8.82137C32.1755 8.79562 32.2622 8.76986 32.3461 8.74411C32.4579 8.7155 32.5613 8.68403 32.6592 8.65255C32.7207 8.63252 32.7794 8.61536 32.8353 8.59533C32.8577 8.5896 32.88 8.58102 32.8996 8.5753C32.9527 8.55813 33.003 8.54096 33.0534 8.52093C33.1205 8.49804 33.182 8.47515 33.2463 8.45226C33.2547 8.4494 33.2658 8.44654 33.2742 8.44082C33.2994 8.43223 33.3218 8.42365 33.3441 8.41506C33.4084 8.38931 33.4699 8.36642 33.5286 8.34067C33.5454 8.33495 33.5622 8.32636 33.5762 8.32064C33.6433 8.29203 33.7076 8.26628 33.7663 8.23766C33.7691 8.23766 33.7691 8.2348 33.7719 8.2348C34.18 8.04596 34.4037 7.88573 34.5267 7.77413ZM33.3693 59.3089C33.3553 59.3146 33.3385 59.3203 33.3245 59.3232C33.1484 59.3833 32.9667 59.4434 32.7738 59.5006C32.7626 59.5035 32.7486 59.5063 32.7375 59.5092C32.539 59.5693 32.3321 59.6265 32.1168 59.6809C32.1084 59.6837 32.1 59.6866 32.0916 59.6894C31.8764 59.7438 31.6527 59.7953 31.4207 59.8468C31.3955 59.8525 31.3704 59.8611 31.3424 59.8668C31.1188 59.9155 30.8867 59.9641 30.6463 60.0099C30.6099 60.0185 30.5708 60.0242 30.5345 60.0328C30.2968 60.0786 30.0508 60.1215 29.7992 60.1644C29.7545 60.173 29.7097 60.1787 29.665 60.1873C29.4106 60.2302 29.1506 60.2703 28.8822 60.3103C28.8347 60.3161 28.79 60.3218 28.7424 60.3304C28.4684 60.3704 28.1861 60.4076 27.8953 60.4448C27.8562 60.4505 27.8171 60.4563 27.7779 60.4591C27.4872 60.4963 27.1908 60.5307 26.8833 60.565C26.8665 60.5679 26.8497 60.5707 26.833 60.5707C26.8246 60.5736 26.8162 60.5736 26.8106 60.5736C26.6429 60.5965 26.4667 60.6136 26.285 60.6308C23.7885 60.8855 20.9676 61.0199 18.1328 61.0199H17.9231C17.8812 61.0199 17.8309 61.0199 17.7778 61.0171H17.719C17.6575 61.0171 17.596 61.0171 17.5234 61.0142C17.5206 61.0142 17.5178 61.0142 17.5178 61.0142C17.4479 61.0142 17.3724 61.0142 17.2913 61.0114H17.2102C17.1264 61.0085 17.0425 61.0085 16.9502 61.0056H16.9307C16.8412 61.0056 16.7462 61.0028 16.6511 60.9999C16.612 60.9999 16.5756 60.9999 16.5365 60.997C16.4358 60.9942 16.3352 60.9942 16.2262 60.9913C16.2122 60.9885 16.1982 60.9885 16.1842 60.9885C16.078 60.9856 15.9662 60.9827 15.8515 60.9799C15.8096 60.977 15.7677 60.977 15.7229 60.9742C15.6167 60.9713 15.5077 60.9684 15.393 60.9656C15.3567 60.9627 15.3204 60.9627 15.284 60.9599C15.1694 60.957 15.052 60.9513 14.9345 60.9484C14.8842 60.9455 14.8367 60.9427 14.7892 60.9427C14.669 60.937 14.546 60.9312 14.4229 60.9255C14.3782 60.9255 14.3363 60.9227 14.2915 60.9198C14.1657 60.9141 14.0399 60.9084 13.9113 60.9026L13.752 60.894C13.6234 60.8883 13.4948 60.8797 13.3634 60.874C13.3103 60.8712 13.2571 60.8683 13.204 60.8654C13.0726 60.8568 12.9412 60.8483 12.807 60.8397C12.7483 60.8368 12.6896 60.834 12.6309 60.8282C12.4911 60.8196 12.3485 60.8111 12.206 60.8025C12.1612 60.7996 12.1137 60.7939 12.069 60.791C11.9264 60.7825 11.7838 60.771 11.6384 60.7596C11.5769 60.7567 11.5154 60.751 11.4539 60.7453C11.3086 60.7367 11.1632 60.7224 11.0178 60.7109C10.9675 60.7081 10.9172 60.7023 10.8668 60.6995C10.7215 60.6852 10.5733 60.6737 10.4251 60.6594C10.3636 60.6537 10.3021 60.648 10.2406 60.6423C10.0868 60.6279 9.93307 60.6136 9.77931 60.5965C9.73738 60.5936 9.69544 60.5907 9.6563 60.585C9.49974 60.5679 9.34319 60.5536 9.18663 60.5364C9.12792 60.5278 9.072 60.5221 9.0133 60.5164C8.85674 60.4992 8.70018 60.4792 8.54362 60.462C8.50169 60.4563 8.45975 60.4505 8.41781 60.4448C8.26405 60.4277 8.11029 60.4076 7.95653 60.3847C7.89782 60.379 7.8419 60.3704 7.7832 60.3618C7.62384 60.3418 7.46169 60.3189 7.30234 60.296C7.27159 60.2903 7.24083 60.2846 7.21288 60.2817C7.05352 60.2588 6.89696 60.2331 6.74041 60.2073C6.68729 60.1987 6.63417 60.1902 6.58105 60.1816C6.4189 60.1558 6.25955 60.1272 6.10019 60.0986C6.07783 60.0957 6.05546 60.0929 6.0331 60.0872C5.87654 60.0585 5.71998 60.0299 5.56622 59.9985C5.51869 59.9899 5.46837 59.9813 5.42084 59.9698C5.26149 59.9384 5.10493 59.9069 4.95117 59.8726C4.93719 59.8697 4.92042 59.8668 4.90364 59.8611C4.75268 59.8296 4.6045 59.7924 4.45633 59.7581C4.4144 59.7467 4.36967 59.7381 4.32773 59.7266C4.17397 59.6894 4.023 59.6494 3.87483 59.6093C3.86924 59.6093 3.86085 59.6065 3.85247 59.6036C3.70989 59.5635 3.5701 59.5235 3.43032 59.4806C3.39397 59.4691 3.35484 59.4577 3.3157 59.4462C3.17591 59.4033 3.03613 59.3575 2.90193 59.3117C2.90193 59.3117 2.90193 59.3117 2.89914 59.3117C3.22344 60.2216 3.30451 60.9541 3.30451 60.9656C3.30731 60.9913 3.3101 61.0171 3.3101 61.0428C3.54774 61.8898 8.84835 63.4978 18.1328 63.4978C27.4201 63.4978 32.7207 61.8898 32.9611 61.0285C32.9611 60.9999 32.9611 60.9827 32.9639 60.9541C32.9779 60.8454 33.0701 60.1558 33.3693 59.3089ZM32.9527 3.95717C32.9527 3.95717 32.9527 3.95431 32.9527 3.95717C32.6536 3.08734 27.3586 1.50218 18.1328 1.50218C8.88469 1.50218 3.58688 3.09592 3.3129 3.96003C3.32967 3.99151 3.45828 4.21182 4.07612 4.51798C4.07892 4.51798 4.07892 4.51798 4.08171 4.52084C4.12924 4.54373 4.17956 4.56663 4.23268 4.58952C4.24386 4.59524 4.25225 4.60096 4.26343 4.60668C4.31096 4.62671 4.36128 4.6496 4.4116 4.66963C4.43117 4.67822 4.45074 4.6868 4.47031 4.69538C4.52343 4.71541 4.57934 4.7383 4.63526 4.76119C4.66042 4.76978 4.67999 4.77836 4.70515 4.78694C4.73031 4.79553 4.75827 4.80697 4.78622 4.81556C8.12706 4.06018 12.972 3.62526 18.1328 3.62526C23.2964 3.62526 28.1386 4.06018 31.4822 4.81556C31.5074 4.80697 31.5325 4.79839 31.5577 4.78981C31.5856 4.77836 31.6108 4.76978 31.636 4.75833C31.6863 4.7383 31.7366 4.71827 31.7841 4.70111C31.8149 4.6868 31.84 4.67535 31.868 4.66391C31.9099 4.64674 31.9491 4.62957 31.9854 4.61241C32.0134 4.60096 32.0385 4.58952 32.0637 4.57807C32.1 4.5609 32.1336 4.5466 32.1643 4.52943C32.1895 4.51798 32.2119 4.50654 32.2342 4.49509C32.265 4.48079 32.2929 4.46362 32.3209 4.44931C32.3405 4.43787 32.36 4.42642 32.3796 4.41784C32.4076 4.40353 32.4299 4.38922 32.4551 4.37492C32.4719 4.36347 32.4886 4.35489 32.5054 4.34344C32.5278 4.32914 32.5501 4.31769 32.5697 4.30339C32.5837 4.2948 32.5977 4.28336 32.6116 4.27477C32.6312 4.26333 32.648 4.24902 32.6648 4.23758C32.6787 4.22899 32.6899 4.22041 32.7011 4.21182C32.7179 4.20038 32.7319 4.18607 32.7486 4.17463C32.757 4.16891 32.7654 4.16032 32.7738 4.1546C32.7934 4.13743 32.8129 4.12026 32.8297 4.1031C32.8353 4.10023 32.8381 4.09737 32.8409 4.09451L32.8912 4.04301C32.8968 4.03442 32.9024 4.0287 32.908 4.02012C32.9136 4.0144 32.9164 4.01153 32.9192 4.00581C32.9248 4.00009 32.9276 3.99437 32.9332 3.98864C32.9359 3.98578 32.9387 3.98006 32.9415 3.9772C32.9443 3.97434 32.9443 3.96861 32.9471 3.96575C32.9499 3.96289 32.9499 3.96003 32.9527 3.95717ZM27.4396 5.77123C27.6605 5.73689 27.873 5.70256 28.0826 5.66536C25.2199 5.27336 21.7616 5.05591 18.1328 5.05591C14.5068 5.05591 11.0486 5.27336 8.18298 5.66536C8.39265 5.70256 8.60792 5.73689 8.82878 5.77123C8.88469 5.77981 8.9434 5.7884 9.00211 5.79698C9.20061 5.82846 9.3991 5.85707 9.60318 5.88282C9.64791 5.88854 9.69265 5.89713 9.74017 5.90285C9.9806 5.93432 10.2266 5.9658 10.4754 5.99441C10.5341 6.00299 10.5929 6.00872 10.6516 6.01444C10.864 6.04019 11.0765 6.06308 11.2946 6.08311C11.3505 6.08883 11.4064 6.09456 11.4623 6.10028C11.7223 6.12603 11.9879 6.15178 12.2535 6.17467C12.3094 6.17753 12.3653 6.18326 12.4212 6.18898C12.6477 6.20615 12.8769 6.22331 13.1062 6.24048C13.1733 6.24334 13.2376 6.24907 13.3019 6.25479C13.5786 6.27196 13.8582 6.28912 14.1378 6.30629C14.1853 6.30915 14.2328 6.30915 14.2804 6.31201C14.5236 6.32632 14.7696 6.33777 15.0156 6.34921C15.0883 6.35207 15.1638 6.35493 15.2365 6.35779C15.5244 6.36924 15.8152 6.37782 16.1059 6.38641C16.1367 6.38641 16.1674 6.38927 16.1982 6.38927C16.4638 6.39499 16.7322 6.40071 17.0006 6.40357C17.0788 6.40644 17.1571 6.40644 17.2354 6.4093C17.5345 6.41216 17.8337 6.41502 18.1328 6.41502C18.4347 6.41502 18.7339 6.41216 19.033 6.4093C19.1113 6.40644 19.1896 6.40644 19.2679 6.40357C19.5362 6.40071 19.8046 6.39499 20.0702 6.38927C20.101 6.38927 20.1317 6.38641 20.1597 6.38641C20.4532 6.37782 20.744 6.36924 21.0319 6.35779C21.1046 6.35493 21.1773 6.35207 21.2528 6.34921C21.4988 6.33777 21.742 6.32632 21.9853 6.31201C22.0328 6.30915 22.0831 6.30915 22.1306 6.30629C22.4102 6.28912 22.6898 6.27196 22.9637 6.25479C23.0308 6.24907 23.0951 6.24334 23.1622 6.24048C23.3915 6.22331 23.6207 6.20615 23.8444 6.18898C23.9003 6.18326 23.959 6.17753 24.0149 6.17467C24.2805 6.15178 24.5461 6.12603 24.8061 6.10028C24.862 6.09456 24.9179 6.08883 24.9738 6.08311C25.1891 6.06308 25.4044 6.04019 25.6141 6.01444C25.6728 6.00872 25.7343 6.00299 25.793 5.99441C26.0418 5.9658 26.2878 5.93432 26.5282 5.90285C26.5758 5.89713 26.6205 5.88854 26.6652 5.88282C26.8693 5.85707 27.0678 5.82846 27.2635 5.79698C27.3222 5.7884 27.3809 5.77981 27.4396 5.77123Z" fill="#111111"/>
<path d="M33.9865 7.0245C34.1542 7.29633 34.3331 7.54812 34.526 7.77416C34.403 7.88575 34.1794 8.04599 33.7712 8.23483C33.7684 8.23483 33.7684 8.23769 33.7656 8.23769C33.7069 8.26631 33.6426 8.29206 33.5755 8.32067C33.5615 8.32639 33.5448 8.33498 33.528 8.3407C33.4693 8.36645 33.4078 8.38934 33.3435 8.41509C33.3211 8.42368 33.2987 8.43226 33.2736 8.44084C33.2652 8.44657 33.254 8.44943 33.2456 8.45229C33.1813 8.47518 33.1198 8.49807 33.0527 8.52096C33.0024 8.54099 32.9521 8.55816 32.899 8.57532C32.8794 8.58105 32.857 8.58963 32.8347 8.59535C32.7787 8.61538 32.72 8.63255 32.6585 8.65258C32.5607 8.68405 32.4572 8.71553 32.3454 8.74414C32.2615 8.76989 32.1749 8.79564 32.077 8.8214C31.8729 8.87862 31.6577 8.93299 31.42 8.98735C31.3697 8.9988 31.3194 9.0131 31.2663 9.02455C31.2355 9.03313 31.202 9.03886 31.1712 9.04744C31.1153 9.05888 31.0622 9.07033 31.0007 9.08464C30.942 9.09608 30.8833 9.11039 30.8218 9.12183C30.7491 9.139 30.6764 9.15331 30.6037 9.16761C30.5562 9.17906 30.5114 9.18764 30.4611 9.19623C30.4304 9.20481 30.3968 9.21053 30.3661 9.21625C30.2431 9.24201 30.1117 9.2649 29.9831 9.29065L29.9271 9.29923C29.8125 9.31926 29.6923 9.34215 29.5749 9.36218C29.477 9.37935 29.3792 9.39652 29.2785 9.41368C29.2142 9.42227 29.1471 9.43371 29.0801 9.44516C28.9431 9.46519 28.8061 9.48808 28.6663 9.50811C28.5712 9.52241 28.4734 9.53672 28.3755 9.55103C28.2721 9.56533 28.1687 9.57964 28.0624 9.59681C27.9031 9.61684 27.7409 9.63686 27.576 9.65976C27.5284 9.66548 27.4809 9.6712 27.4334 9.67692L27.0979 9.71698C26.8603 9.74846 26.6199 9.77135 26.371 9.7971C26.1865 9.81713 26.002 9.83716 25.8063 9.85432C25.5239 9.88294 25.2332 9.91155 24.9424 9.93158C24.9313 9.93444 24.9201 9.93444 24.9117 9.93444L24.6741 9.95447C24.4616 9.97164 24.2463 9.9888 24.0143 10.0031C23.9891 10.006 23.964 10.006 23.9388 10.0088C23.8661 10.0146 23.7962 10.0203 23.7263 10.0231C23.6704 10.026 23.6173 10.0317 23.5586 10.0346C23.4076 10.046 23.2538 10.0518 23.0945 10.0603C22.8177 10.0804 22.5354 10.0947 22.2502 10.1061C22.1412 10.1118 22.0293 10.1176 21.9175 10.1204C21.6967 10.1319 21.4758 10.1405 21.2465 10.149C20.2289 10.1834 19.1889 10.2034 18.1322 10.2034C13.7569 10.2034 9.59694 9.88866 6.42664 9.3164C3.11935 8.72125 2.06258 8.06601 1.73828 7.77989C1.93398 7.55098 2.1157 7.29633 2.28064 7.02164C2.58817 6.51233 2.80623 5.98585 2.95999 5.5166C2.97118 5.52519 2.98795 5.53377 3.00193 5.54235C3.07741 5.58813 3.15569 5.63678 3.23956 5.68256C3.26472 5.69686 3.28988 5.71117 3.31505 5.72261C3.41849 5.77984 3.52472 5.8342 3.63935 5.88571C3.65332 5.89143 3.6701 5.90001 3.68408 5.90574C3.78752 5.95152 3.89655 6.00016 4.00837 6.04594C4.04192 6.05739 4.07547 6.07169 4.10902 6.086C4.23762 6.1375 4.37181 6.18614 4.51439 6.23479C7.40513 7.24482 12.4961 7.8457 18.1322 7.8457C19.1917 7.8457 20.2289 7.8228 21.2354 7.78275C22.3173 7.73983 23.3629 7.67116 24.3609 7.58246C25.2248 7.5052 26.0523 7.4165 26.8323 7.30777C26.8798 7.30205 26.9274 7.29633 26.9721 7.28774C27.699 7.1876 28.3839 7.07315 29.0241 6.94439C30.0669 6.73837 30.9867 6.50375 31.7527 6.23479C31.8953 6.18614 32.0267 6.1375 32.1581 6.086C32.1916 6.07169 32.2252 6.05739 32.2587 6.04594C32.3706 6.00016 32.4796 5.95152 32.583 5.90574C32.597 5.90001 32.6138 5.89143 32.6278 5.88571C32.7424 5.8342 32.8486 5.77984 32.9521 5.72261C32.9772 5.70831 33.0024 5.69686 33.0276 5.68256C33.1114 5.63391 33.1925 5.58813 33.268 5.53949C33.282 5.53091 33.2959 5.52232 33.3071 5.5166C33.4637 5.98585 33.6817 6.51519 33.9865 7.0245Z" fill="#B5B5B6"/>
<path d="M33.3248 59.3232C33.3388 59.3203 33.3556 59.3146 33.3695 59.3089C33.0704 60.1558 32.9782 60.8454 32.9642 60.9541C32.9614 60.9828 32.9614 60.9999 32.9614 61.0285C32.7209 61.8898 27.4203 63.4978 18.1331 63.4978C8.84862 63.4978 3.54801 61.8898 3.31038 61.0428C3.31038 61.0171 3.30758 60.9913 3.30479 60.9656C3.30479 60.9541 3.22371 60.2217 2.89941 59.3118C2.90221 59.3118 2.90221 59.3118 2.90221 59.3118C3.0364 59.3575 3.17619 59.4033 3.31597 59.4462C3.35511 59.4577 3.39425 59.4691 3.43059 59.4806C3.57038 59.5235 3.71016 59.5636 3.85274 59.6036C3.86113 59.6065 3.86952 59.6093 3.87511 59.6093C4.02328 59.6494 4.17424 59.6895 4.32801 59.7267C4.36994 59.7381 4.41467 59.7467 4.45661 59.7581C4.60478 59.7925 4.75295 59.8297 4.90392 59.8611C4.92069 59.8669 4.93747 59.8697 4.95144 59.8726C5.10521 59.9069 5.26176 59.9384 5.42112 59.9699C5.46865 59.9813 5.51897 59.9899 5.56649 59.9985C5.72026 60.0299 5.87682 60.0586 6.03337 60.0872C6.05574 60.0929 6.0781 60.0958 6.10047 60.0986C6.25982 60.1272 6.41918 60.1558 6.58133 60.1816C6.63444 60.1902 6.68756 60.1988 6.74068 60.2073C6.89724 60.2331 7.0538 60.2588 7.21315 60.2817C7.24111 60.2846 7.27186 60.2903 7.30261 60.296C7.46197 60.3189 7.62412 60.3418 7.78347 60.3619C7.84218 60.3704 7.89809 60.379 7.9568 60.3847C8.11056 60.4076 8.26433 60.4277 8.41809 60.4448C8.46002 60.4506 8.50196 60.4563 8.54389 60.462C8.70045 60.4792 8.85701 60.4992 9.01357 60.5164C9.07228 60.5221 9.12819 60.5278 9.1869 60.5364C9.34346 60.5536 9.50002 60.5679 9.65658 60.585C9.69572 60.5908 9.73765 60.5936 9.77959 60.5965C9.93335 60.6137 10.0871 60.628 10.2409 60.6423C10.3024 60.648 10.3639 60.6537 10.4254 60.6594C10.5736 60.6737 10.7217 60.6852 10.8671 60.6995C10.9174 60.7024 10.9678 60.7081 11.0181 60.7109C11.1634 60.7224 11.3088 60.7367 11.4542 60.7453C11.5157 60.751 11.5772 60.7567 11.6387 60.7596C11.7841 60.771 11.9267 60.7825 12.0692 60.7911C12.114 60.7939 12.1615 60.7996 12.2062 60.8025C12.3488 60.8111 12.4914 60.8197 12.6312 60.8282C12.6899 60.834 12.7486 60.8368 12.8073 60.8397C12.9415 60.8483 13.0729 60.8569 13.2043 60.8654C13.2574 60.8683 13.3105 60.8712 13.3637 60.874C13.495 60.8798 13.6236 60.8883 13.7523 60.8941L13.9116 60.9026C14.0402 60.9084 14.166 60.9141 14.2918 60.9198C14.3365 60.9227 14.3785 60.9255 14.4232 60.9255C14.5462 60.9313 14.6692 60.937 14.7894 60.9427C14.837 60.9427 14.8845 60.9456 14.9348 60.9484C15.0522 60.9513 15.1697 60.957 15.2843 60.9599C15.3206 60.9627 15.357 60.9627 15.3933 60.9656C15.5079 60.9685 15.617 60.9713 15.7232 60.9742C15.7679 60.977 15.8099 60.977 15.8518 60.9799C15.9664 60.9828 16.0783 60.9856 16.1845 60.9885C16.1985 60.9885 16.2125 60.9885 16.2264 60.9913C16.3355 60.9942 16.4361 60.9942 16.5367 60.9971C16.5759 60.9999 16.6122 60.9999 16.6514 60.9999C16.7464 61.0028 16.8415 61.0057 16.9309 61.0057H16.9505C17.0428 61.0085 17.1266 61.0085 17.2105 61.0114H17.2916C17.3727 61.0142 17.4481 61.0142 17.518 61.0142C17.518 61.0142 17.5208 61.0142 17.5236 61.0142C17.5963 61.0171 17.6578 61.0171 17.7193 61.0171H17.778C17.8312 61.02 17.8815 61.02 17.9234 61.02H18.1331C20.9679 61.02 23.7887 60.8855 26.2853 60.6308C26.467 60.6136 26.6431 60.5965 26.8109 60.5736C26.8165 60.5736 26.8249 60.5736 26.8332 60.5707C26.85 60.5707 26.8668 60.5679 26.8836 60.565C27.1911 60.5307 27.4874 60.4963 27.7782 60.4591C27.8173 60.4563 27.8565 60.4506 27.8956 60.4448C28.1864 60.4076 28.4687 60.3704 28.7427 60.3304C28.7902 60.3218 28.835 60.3161 28.8825 60.3104C29.1509 60.2703 29.4109 60.2302 29.6653 60.1873C29.71 60.1787 29.7547 60.173 29.7995 60.1644C30.0511 60.1215 30.2971 60.0786 30.5347 60.0328C30.5711 60.0242 30.6102 60.0185 30.6466 60.0099C30.887 59.9641 31.119 59.9155 31.3427 59.8669C31.3706 59.8611 31.3958 59.8525 31.421 59.8468C31.653 59.7953 31.8767 59.7438 32.0919 59.6895C32.1003 59.6866 32.1087 59.6837 32.1171 59.6809C32.3324 59.6265 32.5392 59.5693 32.7377 59.5092C32.7489 59.5063 32.7629 59.5035 32.7741 59.5006C32.967 59.4434 33.1487 59.3833 33.3248 59.3232Z" fill="#B5B5B6"/>
<path d="M32.9551 3.95433C32.9523 3.95433 32.9523 3.95719 32.9551 3.95433C32.9495 3.96005 32.9495 3.96291 32.9467 3.96577C32.9439 3.96863 32.9439 3.97436 32.9411 3.97722C32.9383 3.98008 32.9355 3.9858 32.9327 3.98866C32.9272 3.99438 32.9244 4.00011 32.9188 4.00583C32.916 4.01155 32.9132 4.01441 32.9076 4.02014C32.902 4.02872 32.8964 4.03444 32.8908 4.04303L32.8405 4.09453C32.8377 4.09739 32.8349 4.10025 32.8293 4.10311C32.8125 4.12028 32.793 4.13745 32.7734 4.15462C32.765 4.16034 32.7566 4.16892 32.7482 4.17465C32.7315 4.18609 32.7175 4.2004 32.7007 4.21184C32.6895 4.22043 32.6783 4.22901 32.6644 4.23759C32.6476 4.24904 32.6308 4.26335 32.6112 4.27479C32.5973 4.28337 32.5833 4.29482 32.5693 4.3034C32.5497 4.31771 32.5274 4.32916 32.505 4.34346C32.4882 4.35491 32.4715 4.36349 32.4547 4.37494C32.4295 4.38924 32.4072 4.40355 32.3792 4.41786C32.3596 4.42644 32.3401 4.43788 32.3205 4.44933C32.2925 4.46364 32.2646 4.4808 32.2338 4.49511C32.2115 4.50656 32.1891 4.518 32.1639 4.52945C32.1332 4.54661 32.0996 4.56092 32.0633 4.57809C32.0381 4.58953 32.013 4.60098 31.985 4.61242C31.9487 4.62959 31.9095 4.64676 31.8676 4.66393C31.8396 4.67537 31.8145 4.68682 31.7837 4.70112C31.7362 4.71829 31.6859 4.73832 31.6356 4.75835C31.6104 4.76979 31.5852 4.77838 31.5573 4.78982C31.5321 4.79841 31.507 4.80699 31.4818 4.81558C28.1382 4.06019 23.296 3.62528 18.1324 3.62528C12.9716 3.62528 8.12666 4.06019 4.78582 4.81558C4.75787 4.80699 4.72991 4.79555 4.70475 4.78696C4.67959 4.77838 4.66002 4.76979 4.63486 4.76121C4.57894 4.73832 4.52303 4.71543 4.46991 4.6954C4.45034 4.68682 4.43077 4.67823 4.4112 4.66965C4.36088 4.64962 4.31056 4.62673 4.26303 4.6067C4.25185 4.60098 4.24346 4.59526 4.23228 4.58953C4.17916 4.56664 4.12884 4.54375 4.08131 4.52086C4.07852 4.518 4.07852 4.518 4.07572 4.518C3.45788 4.21184 3.32927 3.99152 3.3125 3.96005C3.58648 3.09594 8.88429 1.5022 18.1324 1.5022C27.3582 1.5022 32.6532 3.08735 32.9551 3.95433Z" fill="#595757"/>
<path d="M28.0823 5.66536C27.8726 5.70256 27.6601 5.7369 27.4393 5.77123C27.3806 5.77982 27.3219 5.7884 27.2631 5.79698C27.0674 5.82846 26.869 5.85707 26.6649 5.88282C26.6201 5.88854 26.5754 5.89713 26.5279 5.90285C26.2875 5.93432 26.0414 5.9658 25.7926 5.99441C25.7339 6.003 25.6724 6.00872 25.6137 6.01444C25.404 6.04019 25.1887 6.06308 24.9735 6.08311C24.9176 6.08883 24.8617 6.09456 24.8057 6.10028C24.5457 6.12603 24.2802 6.15178 24.0146 6.17467C23.9586 6.17753 23.8999 6.18326 23.844 6.18898C23.6204 6.20615 23.3911 6.22332 23.1619 6.24048C23.0948 6.24334 23.0305 6.24907 22.9634 6.25479C22.6894 6.27196 22.4098 6.28913 22.1303 6.30629C22.0827 6.30915 22.0324 6.30915 21.9849 6.31202C21.7417 6.32632 21.4985 6.33777 21.2524 6.34921C21.1769 6.35207 21.1043 6.35493 21.0316 6.3578C20.7436 6.36924 20.4529 6.37783 20.1593 6.38641C20.1314 6.38641 20.1006 6.38927 20.0699 6.38927C19.8043 6.39499 19.5359 6.40072 19.2675 6.40358C19.1892 6.40644 19.1109 6.40644 19.0327 6.4093C18.7335 6.41216 18.4344 6.41502 18.1324 6.41502C17.8333 6.41502 17.5342 6.41216 17.235 6.4093C17.1568 6.40644 17.0785 6.40644 17.0002 6.40358C16.7318 6.40072 16.4634 6.39499 16.1978 6.38927C16.1671 6.38927 16.1363 6.38641 16.1056 6.38641C15.8148 6.37783 15.5241 6.36924 15.2361 6.3578C15.1634 6.35493 15.088 6.35207 15.0153 6.34921C14.7692 6.33777 14.5232 6.32632 14.28 6.31202C14.2325 6.30915 14.1849 6.30915 14.1374 6.30629C13.8579 6.28913 13.5783 6.27196 13.3015 6.25479C13.2372 6.24907 13.1729 6.24334 13.1058 6.24048C12.8766 6.22332 12.6473 6.20615 12.4209 6.18898C12.365 6.18326 12.309 6.17753 12.2531 6.17467C11.9875 6.15178 11.722 6.12603 11.462 6.10028C11.406 6.09456 11.3501 6.08883 11.2942 6.08311C11.0761 6.06308 10.8637 6.04019 10.6512 6.01444C10.5925 6.00872 10.5338 6.003 10.4751 5.99441C10.2263 5.9658 9.98024 5.93432 9.73981 5.90285C9.69229 5.89713 9.64755 5.88854 9.60282 5.88282C9.39874 5.85707 9.20024 5.82846 9.00175 5.79698C8.94304 5.7884 8.88433 5.77982 8.82842 5.77123C8.60756 5.7369 8.39229 5.70256 8.18262 5.66536C11.0482 5.27337 14.5064 5.05591 18.1324 5.05591C21.7612 5.05591 25.2195 5.27337 28.0823 5.66536Z" fill="#898989"/>
<path d="M34.6689 56.9741C34.6689 56.9827 34.6661 56.9941 34.6661 57.0027C34.6661 57.0056 34.6633 57.0113 34.6605 57.017C34.6577 57.0227 34.6549 57.0284 34.6521 57.037C34.6493 57.0399 34.6437 57.0456 34.6409 57.0513C34.6353 57.0599 34.6298 57.0685 34.6242 57.0742C34.6214 57.08 34.6158 57.0857 34.6102 57.0914C34.6046 57.1 34.5962 57.1086 34.5878 57.1171C34.5822 57.1257 34.5766 57.1315 34.5682 57.14L34.5431 57.1658C34.5347 57.1715 34.5235 57.1801 34.5151 57.1887C34.504 57.1973 34.4956 57.2059 34.4844 57.2144C34.4732 57.223 34.4592 57.2345 34.448 57.243C34.4369 57.2516 34.4257 57.2602 34.4145 57.2688C34.4005 57.2802 34.3837 57.2917 34.367 57.3003C34.3558 57.3089 34.3446 57.3174 34.3334 57.326C34.3138 57.3375 34.2915 57.3518 34.2691 57.3661C34.2607 57.3718 34.2495 57.3775 34.2384 57.3861C34.2132 57.4004 34.1852 57.4176 34.1573 57.4319C34.1489 57.4376 34.1405 57.4433 34.1293 57.4491C34.0986 57.4662 34.0622 57.4834 34.0259 57.5034C34.0203 57.5063 34.0147 57.5091 34.0091 57.512C33.9672 57.5349 33.9224 57.5549 33.8777 57.5778C33.8749 57.5778 33.8749 57.5778 33.8721 57.5807C32.8573 58.0642 30.727 58.7052 26.6621 59.1515C26.6341 59.1544 26.6061 59.1601 26.5782 59.1601C25.6053 55.017 24.5569 47.1713 28.0795 40.0324C33.4612 29.1251 34.6018 19.5942 30.3831 10.6726C31.5293 10.4609 32.5917 10.2005 33.4835 9.88293C33.4919 9.88007 33.5003 9.87721 33.5087 9.87434C33.6792 9.81426 33.8386 9.75703 33.9812 9.69694C34.0846 9.65689 34.1797 9.61683 34.2551 9.58249C34.3921 9.51954 34.5235 9.4566 34.6409 9.39651C34.6493 9.39079 34.6577 9.38792 34.6661 9.3822L34.6689 56.9741Z" fill="#27AE60"/>
<path d="M28.0795 40.0323C24.5569 47.1713 25.6053 55.0169 26.5782 59.1601C26.4384 59.1801 26.2958 59.1916 26.1505 59.2059C26.0945 59.2116 26.0386 59.2173 25.9799 59.223C24.6604 55.263 22.818 47.3372 25.815 39.7433C30.1231 28.839 30.6152 19.5369 26.2427 11.2477C26.335 11.242 26.4244 11.2306 26.5139 11.222C26.7711 11.1962 27.0227 11.1676 27.2631 11.1361L27.6322 11.0932C28.2221 11.0217 28.7756 10.9416 29.3012 10.8557C29.6702 10.7985 30.0309 10.7384 30.3831 10.6726C34.6018 19.5941 33.4612 29.1251 28.0795 40.0323Z" fill="white"/>
<path d="M25.9799 59.223C23.5672 59.4634 20.8582 59.5893 18.1324 59.5893C13.7544 59.5893 9.59721 59.2745 6.42411 58.7023C2.0321 57.9097 1.60715 57.017 1.60156 57.017V9.36786C1.81963 9.48803 2.06005 9.59962 2.32005 9.70549C2.32005 9.70549 2.32005 9.70549 2.32285 9.70549C6.94132 11.6054 17.5593 11.634 18.1324 11.634C18.4679 11.634 18.8034 11.6311 19.1361 11.6283H19.2032C19.4408 11.6254 19.6756 11.6226 19.9077 11.6168C20.3634 11.6083 20.8135 11.5968 21.258 11.5796C21.5795 11.5682 21.8926 11.5567 22.2057 11.5424C22.5328 11.5281 22.8599 11.511 23.173 11.4909C23.338 11.4824 23.4973 11.4709 23.6455 11.4623C23.8105 11.4509 23.9754 11.4423 24.1208 11.4309C24.3416 11.4137 24.5625 11.3965 24.7806 11.3793L25.0406 11.3593C25.3425 11.3364 25.6444 11.3078 25.9352 11.2792C26.0386 11.2706 26.1393 11.2592 26.2427 11.2477C30.6151 19.5369 30.1231 28.839 25.815 39.7433C22.818 47.3372 24.6603 55.263 25.9799 59.223Z" fill="#27AE60"/>
<path d="M9.26758 46.5705C9.26758 46.1813 9.40457 45.8838 9.67575 45.6749C9.89102 45.5061 10.151 45.4231 10.4585 45.4231C11.0093 45.4231 11.6355 45.6119 12.34 45.9896C12.9467 46.3215 13.4919 46.7336 13.9727 47.2257C14.2858 47.5519 14.4396 47.8066 14.4396 47.9925C14.4396 48.1156 14.3809 48.2272 14.2607 48.333C14.1768 48.4074 14.0789 48.4475 13.9727 48.4475C13.7742 48.4475 13.5478 48.2701 13.2934 47.9153C12.9299 47.4146 12.5329 47.0197 12.1024 46.7221C11.479 46.2872 10.9506 46.0697 10.52 46.0697C10.3439 46.0697 10.2125 46.1098 10.1286 46.1871C10.0448 46.2643 10 46.3816 10 46.539C10 46.8595 10.2265 47.3115 10.6794 47.8981C11.191 48.5648 11.8843 49.2715 12.765 50.0126C13.8832 50.9597 14.982 51.6779 16.0667 52.1729C17.1877 52.6793 18.1467 52.934 18.9406 52.934C19.3208 52.934 19.6451 52.8224 19.9107 52.5935C20.2127 52.3446 20.3608 52.0384 20.3608 51.6779C20.3608 51.0513 19.8856 50.2615 18.9322 49.3087C18.6443 49.0255 18.2221 48.6793 17.6742 48.2729C17.3219 48.0068 17.0731 47.8352 16.9249 47.7579C16.76 47.6721 16.6789 47.5691 16.6789 47.4518C16.6789 47.323 16.7376 47.26 16.8579 47.26C17.1123 47.26 17.6854 47.5862 18.5772 48.2357C19.3208 48.7765 19.9275 49.3717 20.3972 50.0212C20.9256 50.7537 21.1884 51.4433 21.1884 52.0928C21.1884 52.7709 20.892 53.2974 20.2937 53.6694C19.9135 53.9068 19.4802 54.027 18.991 54.027C17.7664 54.027 16.2204 53.4347 14.3529 52.2501C12.765 51.2401 11.4846 50.1757 10.5145 49.0541C9.68414 48.0898 9.26758 47.26 9.26758 46.5705Z" fill="white"/>
<path d="M14.7217 43.6005C14.7217 43.1255 15.004 42.8851 15.5716 42.8851C16.3264 42.8851 17.2825 43.2428 18.4399 43.9553C19.6924 44.7335 20.3214 45.486 20.3214 46.21C20.3214 46.5476 20.1677 46.7937 19.8629 46.951C19.7092 47.0311 19.5247 47.0741 19.3094 47.0741C18.5825 47.0741 17.7941 46.8194 16.9442 46.3072C16.1559 45.8323 15.5436 45.2714 15.1075 44.6277C14.8475 44.25 14.7217 43.9066 14.7217 43.6005ZM17.9367 44.5046C17.8221 44.6505 17.7354 44.7221 17.6739 44.7221C17.6292 44.7221 17.5034 44.6305 17.2993 44.4445C16.7262 43.9209 16.2649 43.6605 15.9126 43.6605C15.8679 43.6605 15.8232 43.6748 15.7757 43.7035C15.6918 43.7492 15.6471 43.8236 15.6471 43.9209C15.6471 44.1069 15.8232 44.3787 16.1754 44.7392C16.6283 45.2028 17.098 45.5576 17.5789 45.8008C18.1296 46.0841 18.5853 46.2271 18.9488 46.2271C19.0438 46.2271 19.1305 46.2014 19.2032 46.1499C19.3066 46.0755 19.3569 45.9782 19.3569 45.8637C19.3569 45.5862 19.1528 45.2858 18.7447 44.9682C18.5741 44.8279 18.398 44.7164 18.2163 44.6277C18.0374 44.5418 17.9423 44.4989 17.9367 44.5046Z" fill="white"/>
<path d="M17.3839 41.3972C17.8257 41.5718 18.1835 41.7034 18.4547 41.7892C18.7259 41.8751 18.916 41.9208 19.025 41.9208C19.1676 41.9208 19.2375 41.8522 19.2375 41.712C19.2375 41.5031 19.0446 41.2341 18.6588 40.9022C18.4715 40.7448 18.1332 40.5131 17.6467 40.2069C17.4538 40.0839 17.3588 39.958 17.3588 39.8235C17.3588 39.6719 17.4287 39.5975 17.5712 39.5975C17.8145 39.5975 18.3093 39.8836 19.053 40.4587C19.8302 41.0567 20.2188 41.6118 20.2188 42.1211C20.2188 42.3415 20.1293 42.5217 19.9476 42.6619C19.8162 42.7592 19.6596 42.8107 19.4723 42.8107C19.1536 42.8107 18.7147 42.7106 18.1528 42.516C17.5908 42.3186 16.9087 42.0267 16.1035 41.6376C14.0571 40.639 12.3685 39.6204 11.0405 38.5817C9.97538 37.7519 9.44141 37.0624 9.44141 36.5187C9.44141 36.3442 9.50571 36.2011 9.6371 36.0924C9.7685 35.9751 9.91667 35.9178 10.0872 35.9178C10.8812 35.9178 12.2035 36.6446 14.0515 38.0953C14.8734 38.7448 15.6953 39.5231 16.5201 40.4301C16.7325 40.659 17.0205 40.9852 17.3839 41.3972ZM16.0308 40.7792C15.0216 39.5717 13.744 38.493 12.2035 37.5402C11.404 37.0481 10.8728 36.7991 10.6128 36.7991C10.487 36.7991 10.4255 36.8535 10.4255 36.9651C10.4255 37.2855 11.0461 37.8664 12.2874 38.7076C13.3078 39.4029 14.5575 40.0953 16.0308 40.7792Z" fill="white"/>
<path d="M18.8036 36.4329C19.1335 36.6246 19.4103 36.8134 19.6368 36.9994C20.0785 37.3657 20.2993 37.729 20.2993 38.0867C20.2993 38.4015 20.154 38.6447 19.866 38.8192C19.6787 38.9308 19.4578 38.9852 19.2034 38.9852C18.5744 38.9852 17.8783 38.782 17.1178 38.3757C16.2736 37.9236 15.6222 37.3771 15.1693 36.739C14.8757 36.3213 14.7275 35.9179 14.7275 35.5287C14.7275 35.2855 14.8002 35.0824 14.9484 34.9193C15.0798 34.7791 15.2252 34.7104 15.3901 34.7104C15.5159 34.7104 15.6893 34.759 15.9101 34.8592C16.0303 34.7705 16.1338 34.7276 16.226 34.7276C16.3462 34.7276 16.5419 34.8077 16.8131 34.9708C17.0899 35.1396 17.4589 35.3084 17.9202 35.4772C18.4095 35.6575 18.8009 35.7462 19.0944 35.7462C19.332 35.7462 19.5277 35.6746 19.6815 35.5287C19.7206 35.4887 19.7877 35.3685 19.8772 35.1711C19.9443 35.0251 20.0645 34.9536 20.235 34.9536C20.3441 34.9536 20.4307 34.9937 20.4978 35.0766C20.5705 35.1625 20.6097 35.2655 20.6097 35.3828C20.6097 35.6975 20.4727 35.9665 20.2015 36.1925C19.9806 36.3785 19.7011 36.4701 19.3684 36.4701C19.2538 36.4701 19.0664 36.4586 18.8036 36.4329ZM16.0052 35.3456C15.8794 35.4143 15.7871 35.4915 15.7284 35.5716C15.6697 35.6518 15.6389 35.7405 15.6389 35.832C15.6389 36.2727 16.0163 36.7533 16.7712 37.2684C17.6043 37.8378 18.3116 38.121 18.8903 38.121C19.0329 38.121 19.1391 38.0924 19.2146 38.0381C19.2873 37.9837 19.3264 37.9007 19.3264 37.7891C19.3264 37.5116 19.0385 37.1854 18.4598 36.8134C18.1411 36.6046 17.6742 36.347 17.0563 36.038C16.6538 35.8349 16.3882 35.6861 16.2568 35.5945C16.1841 35.5516 16.103 35.4686 16.0052 35.3456Z" fill="white"/>
<path d="M12.4521 28.9048C12.4521 28.5157 12.5891 28.2181 12.8603 28.0092C13.0756 27.8404 13.3356 27.7574 13.6431 27.7574C14.1939 27.7574 14.8201 27.9463 15.5246 28.324C16.1313 28.6559 16.6764 29.0679 17.1573 29.5601C17.4704 29.8862 17.6242 30.1409 17.6242 30.3269C17.6242 30.4499 17.5655 30.5615 17.4452 30.6674C17.3614 30.7418 17.2635 30.7818 17.1573 30.7818C16.9588 30.7818 16.7323 30.6044 16.4779 30.2496C16.1145 29.7489 15.7175 29.354 15.287 29.0565C14.6635 28.6216 14.1351 28.4041 13.7046 28.4041C13.5285 28.4041 13.3971 28.4442 13.3132 28.5214C13.2293 28.5987 13.1846 28.716 13.1846 28.8734C13.1846 29.1938 13.4111 29.6459 13.864 30.2325C14.3756 30.8991 15.0689 31.6059 15.9495 32.347C17.0678 33.294 18.1665 34.0122 19.2512 34.5072C20.3751 35.0194 21.334 35.2741 22.128 35.2741C22.5082 35.2741 22.8325 35.1596 23.0981 34.9336C23.4 34.6846 23.5482 34.3785 23.5482 34.018C23.5482 33.3913 23.0729 32.6016 22.1196 31.6488C21.8317 31.3655 21.4095 31.0193 20.8616 30.613C20.5093 30.3469 20.2605 30.1752 20.1123 30.098C19.9474 30.0121 19.8663 29.9091 19.8663 29.7918C19.8663 29.6631 19.925 29.6001 20.0452 29.6001C20.2996 29.6001 20.8727 29.9263 21.7646 30.5758C22.5082 31.1166 23.1149 31.7118 23.5846 32.3613C24.1129 33.0938 24.3757 33.7833 24.3757 34.4328C24.3757 35.111 24.0794 35.6374 23.4811 36.0094C23.1009 36.2469 22.6676 36.3671 22.1783 36.3671C20.9538 36.3671 19.4078 35.7748 17.5403 34.5902C15.9523 33.5802 14.6719 32.5158 13.7018 31.3941C12.8687 30.427 12.4521 29.5973 12.4521 28.9048Z" fill="white"/>
<path d="M17.9062 25.9377C17.9062 25.4627 18.1886 25.2224 18.7561 25.2224C19.511 25.2224 20.4671 25.58 21.6245 26.2925C22.877 27.0707 23.506 27.8233 23.506 28.5472C23.506 28.8848 23.3522 29.1309 23.0475 29.2882C22.8937 29.3684 22.7092 29.4113 22.494 29.4113C21.7671 29.4113 20.9787 29.1566 20.1288 28.6445C19.3404 28.1695 18.7282 27.6087 18.2921 26.9649C18.0321 26.5872 17.9062 26.2438 17.9062 25.9377ZM21.1213 26.8418C21.0067 26.9878 20.92 27.0593 20.8585 27.0593C20.8138 27.0593 20.688 26.9677 20.4839 26.7818C19.9108 26.2581 19.4495 25.9978 19.0972 25.9978C19.0525 25.9978 19.0077 26.0121 18.9602 26.0407C18.8764 26.0865 18.8316 26.1609 18.8316 26.2581C18.8316 26.4441 19.0077 26.7159 19.36 27.0765C19.8129 27.54 20.2826 27.8948 20.7634 28.138C21.3142 28.4213 21.7699 28.5643 22.1333 28.5643C22.2284 28.5643 22.315 28.5386 22.3877 28.4871C22.4912 28.4127 22.5415 28.3154 22.5415 28.201C22.5415 27.9234 22.3374 27.623 21.9292 27.3054C21.7587 27.1652 21.5826 27.0536 21.4009 26.9649C21.2219 26.8762 21.1269 26.8361 21.1213 26.8418Z" fill="white"/>
<path d="M20.5675 23.7344C21.0092 23.909 21.3671 24.0406 21.6383 24.1264C21.9095 24.2123 22.0996 24.2581 22.2086 24.2581C22.3512 24.2581 22.4211 24.1894 22.4211 24.0492C22.4211 23.8403 22.2282 23.5713 21.8424 23.2394C21.6551 23.0821 21.3168 22.8503 20.8303 22.5441C20.6402 22.4182 20.5424 22.2923 20.5424 22.1579C20.5424 22.0062 20.6123 21.9318 20.7548 21.9318C20.9981 21.9318 21.4929 22.218 22.2366 22.7931C23.0138 23.3911 23.4024 23.9462 23.4024 24.4555C23.4024 24.6758 23.3129 24.8561 23.1312 24.9963C22.9998 25.0935 22.8432 25.1451 22.6559 25.1451C22.3372 25.1451 21.8983 25.0449 21.3363 24.8503C20.7744 24.6529 20.0923 24.3611 19.2871 23.9719C17.2407 22.9733 15.5521 21.9547 14.2241 20.9161C13.159 20.0863 12.625 19.3967 12.625 18.8531C12.625 18.6785 12.6893 18.5355 12.8207 18.4267C12.9521 18.3094 13.1003 18.2522 13.2708 18.2522C14.0648 18.2522 15.3871 18.979 17.2351 20.4296C18.057 21.0792 18.8789 21.8574 19.7037 22.7645C19.9161 22.9962 20.2069 23.3224 20.5675 23.7344ZM19.2144 23.1135C18.2052 21.9061 16.9276 20.8274 15.3871 19.8746C14.5876 19.3824 14.0564 19.1335 13.7964 19.1335C13.6706 19.1335 13.6091 19.1878 13.6091 19.2994C13.6091 19.6199 14.2297 20.2007 15.471 21.042C16.4942 21.7401 17.7411 22.4297 19.2144 23.1135Z" fill="white"/>
<path d="M21.9911 18.7701C22.321 18.9618 22.5978 19.1507 22.8243 19.3366C23.266 19.7029 23.4868 20.0663 23.4868 20.4239C23.4868 20.7387 23.3415 20.9819 23.0535 21.1564C22.8662 21.268 22.6453 21.3224 22.3909 21.3224C21.7619 21.3224 21.0658 21.1192 20.3053 20.7129C19.4611 20.2608 18.8097 19.7143 18.3568 19.0763C18.0632 18.6585 17.915 18.2551 17.915 17.8659C17.915 17.6227 17.9877 17.4196 18.1359 17.2565C18.2673 17.1163 18.4127 17.0476 18.5776 17.0476C18.7034 17.0476 18.8768 17.0962 19.0976 17.1964C19.2178 17.1077 19.3213 17.0648 19.4135 17.0648C19.5337 17.0648 19.7294 17.1449 20.0006 17.308C20.2774 17.4768 20.6464 17.6456 21.1077 17.8144C21.597 17.9947 21.9883 18.0834 22.2819 18.0834C22.5195 18.0834 22.7152 18.0119 22.869 17.8659C22.9081 17.8259 22.9752 17.7057 23.0647 17.5083C23.1318 17.3623 23.252 17.2908 23.4225 17.2908C23.5316 17.2908 23.6182 17.3309 23.6853 17.4139C23.758 17.4997 23.7972 17.6027 23.7972 17.72C23.7972 18.0348 23.6602 18.3037 23.389 18.5298C23.1681 18.7157 22.8886 18.8073 22.5559 18.8073C22.4385 18.8044 22.2511 18.793 21.9911 18.7701ZM19.1899 17.6828C19.0641 17.7515 18.9718 17.8287 18.9131 17.9089C18.8544 17.989 18.8236 18.0777 18.8236 18.1692C18.8236 18.6099 19.2011 19.0906 19.9559 19.6056C20.789 20.175 21.4963 20.4583 22.075 20.4583C22.2176 20.4583 22.3238 20.4297 22.3993 20.3753C22.472 20.3209 22.5111 20.238 22.5111 20.1264C22.5111 19.8488 22.2232 19.5226 21.6445 19.1507C21.3258 18.9418 20.8589 18.6843 20.241 18.3752C19.8385 18.1721 19.5729 18.0233 19.4415 17.9317C19.3688 17.8888 19.2877 17.803 19.1899 17.6828Z" fill="white"/>
</g>
<defs>
<clipPath id="clip0_75124_6667">
<rect width="36" height="65" fill="white" transform="translate(0.133789)"/>
</clipPath>
</defs>
</svg>
