<svg width="24" height="24" viewBox="0 0 24 24" fill="none" xmlns="http://www.w3.org/2000/svg">
<path d="M5.08982 0.619228C5.60264 0.516829 6.01289 0.482695 6.32058 0.516828C6.62828 0.516828 7.10691 0.636295 7.75648 0.875228C8.09836 0.977629 8.38896 1.0971 8.62828 1.23363C8.86759 1.37016 9.10691 1.54083 9.34622 1.74563C9.58554 1.95043 9.87614 2.24056 10.218 2.61603C11.0727 3.50349 11.7052 4.23736 12.1155 4.81763C12.4573 5.32963 12.765 5.60269 13.0385 5.63683C13.3462 5.63683 13.5684 5.3979 13.7052 4.92003C14.0471 3.9643 14.6967 3.02563 15.6539 2.10403C16.6112 1.18243 17.7907 0.704562 19.1924 0.670429C20.5941 0.602162 21.5172 1.01176 21.9616 1.89923C22.1667 2.30883 22.3548 2.61603 22.5257 2.82083C22.7308 3.12803 23.0214 4.04963 23.3975 5.58563C23.5001 6.20003 23.4317 6.86563 23.1924 7.58243C23.0214 8.12856 22.7308 9.11843 22.3206 10.552C21.4317 13.624 20.5257 15.7062 19.6026 16.7984C19.2949 17.208 18.8676 17.7542 18.3206 18.4368C17.9445 18.9488 17.5172 19.3584 17.0385 19.6656C16.4573 20.007 15.3633 20.9115 13.7565 22.3792C12.936 23.096 12.1838 23.3008 11.5001 22.9936C11.1582 22.8571 10.9872 22.7206 10.9872 22.584C10.9872 22.4816 10.3719 21.7819 9.1411 20.4848C7.91033 19.1878 7.124 18.2662 6.78212 17.72C6.40605 17.1056 5.79067 16.3035 4.93597 15.3136C4.52571 14.8016 4.20093 14.4091 3.96161 14.136C3.75648 13.863 3.55135 13.5728 3.34623 13.2656C3.1411 12.9584 2.95306 12.6683 2.78212 12.3952C2.64537 12.1222 2.45734 11.7296 2.21802 11.2176C1.46588 9.81816 1.00435 8.35043 0.833406 6.81443C0.76503 5.99523 0.918876 5.1419 1.29494 4.25443C1.67101 3.36696 2.20093 2.59896 2.88469 1.95043C3.60264 1.26776 4.33768 0.824029 5.08982 0.619228Z" fill="#FF4F6E"/>
</svg>
