<svg width="250" height="120" viewBox="0 0 250 120" fill="none" xmlns="http://www.w3.org/2000/svg">
<g clip-path="url(#clip0_73192_4222)">
<path d="M210.744 77.3376C210.88 77.0304 211.188 76.8768 211.667 76.8768C212.214 76.8768 212.538 77.0304 212.641 77.3376C212.778 77.6448 212.966 82.1845 213.205 90.9568C213.342 96.2816 213.393 99.8314 213.359 101.606C213.359 103.381 213.256 104.371 213.051 104.576C212.675 104.951 212.299 105.054 211.923 104.883C211.786 104.849 211.684 104.678 211.615 104.371C211.547 104.064 211.479 103.45 211.41 102.528C211.342 101.606 211.291 100.463 211.256 99.0976C211.222 97.6981 211.171 95.7696 211.103 93.312C210.897 85.1541 210.778 80.6826 210.744 79.8976C210.641 78.4981 210.641 77.6448 210.744 77.3376ZM193.769 86.1952C196.197 85.0346 197.803 84.5056 198.59 84.608L199.769 84.7104L199.718 88.9088C199.65 90.9568 199.479 93.2437 199.205 95.7696C198.966 98.2954 198.744 99.9338 198.538 100.685C198.402 101.06 198.077 101.299 197.564 101.402C197.085 101.47 196.761 101.35 196.59 101.043C196.385 100.736 196.504 99.729 196.949 98.0224C197.256 96.7253 197.479 94.7114 197.615 91.9808C197.786 89.2501 197.752 87.7482 197.513 87.4752C197.273 87.2704 196.316 87.4922 194.641 88.1408C193.068 88.6528 191.991 88.9429 191.41 89.0112C190.829 89.0453 190.487 88.8746 190.385 88.4992C190.35 88.2602 190.59 87.9701 191.103 87.6288C191.65 87.2533 192.538 86.7754 193.769 86.1952Z" fill="#29363D"/>
<path d="M158.756 74.7264C158.791 73.4294 158.842 72.6614 158.91 72.4224C159.013 72.1835 159.286 72.0982 159.731 72.1664C160.004 72.2006 160.192 72.2859 160.295 72.4224C160.432 72.5248 160.517 72.7467 160.551 73.088C160.585 73.4294 160.62 74.0267 160.654 74.88C160.654 76.928 160.722 79.6758 160.859 83.1232C160.927 85.8539 160.927 87.4752 160.859 87.9872C160.791 88.4992 160.568 88.7894 160.192 88.8576C159.611 88.9259 159.235 88.7552 159.064 88.3456C158.825 87.7312 158.722 83.1915 158.756 74.7264ZM142.654 78.3616C143.44 77.6448 144.004 77.2182 144.346 77.0816C144.722 76.911 145.338 76.8768 146.192 76.9792C147.32 77.0816 148.226 77.3718 148.91 77.8496C149.56 78.2592 149.97 79.0443 150.141 80.2048C150.346 81.3312 150.226 82.4064 149.782 83.4304C149.474 84.1814 148.944 84.847 148.192 85.4272C147.474 85.9734 146.688 86.3659 145.833 86.6048C144.979 86.8438 144.124 86.912 143.269 86.8096C142.449 86.6731 141.782 86.3488 141.269 85.8368C140.996 85.5638 140.825 85.2224 140.756 84.8128C140.688 84.3691 140.688 83.6352 140.756 82.6112C140.825 81.3824 140.944 80.5632 141.115 80.1536C141.32 79.7099 141.833 79.1126 142.654 78.3616ZM147.885 79.3856C146.825 78.5323 145.662 78.4982 144.397 79.2832C143.885 79.5904 143.526 79.9318 143.32 80.3072C143.115 80.6486 142.961 81.1776 142.859 81.8944C142.791 82.4406 142.756 82.9014 142.756 83.2768C142.791 83.6523 142.876 83.9595 143.013 84.1984C143.184 84.4374 143.389 84.6251 143.628 84.7616C143.902 84.864 144.244 84.9152 144.654 84.9152C145.474 84.9152 146.226 84.591 146.91 83.9424C147.628 83.2598 148.056 82.4576 148.192 81.536C148.329 80.4438 148.226 79.727 147.885 79.3856ZM153.32 93.0048C155.03 92.7659 156.038 92.8171 156.346 93.1584C156.654 93.4656 156.808 94.6944 156.808 96.8448V100.634L155.474 101.197C154.585 101.538 153.611 101.811 152.551 102.016C150.808 102.289 149.594 102.682 148.91 103.194C148.261 103.706 147.936 104.491 147.936 105.549C147.936 106.436 148.226 106.965 148.808 107.136C149.423 107.341 150.705 107.324 152.654 107.085C155.047 106.812 156.449 106.59 156.859 106.419C157.303 106.249 157.611 106.419 157.782 106.931C158.021 107.75 157.902 108.297 157.423 108.57C156.979 108.843 155.782 109.03 153.833 109.133C151.508 109.304 149.799 109.474 148.705 109.645C147.679 109.816 146.944 109.645 146.5 109.133C146.09 108.655 145.885 107.716 145.885 106.317C145.885 104.849 145.987 103.791 146.192 103.142C146.295 102.733 146.825 102.272 147.782 101.76C148.739 101.214 149.867 100.77 151.167 100.429C152.705 99.951 153.611 99.5755 153.885 99.3024C154.192 98.9952 154.346 98.2614 154.346 97.1008C154.346 95.6672 154.261 94.9504 154.09 94.9504C153.782 94.9504 153.132 95.0358 152.141 95.2064C151.15 95.3771 150.124 95.5819 149.064 95.8208C148.038 96.0598 147.286 96.2475 146.808 96.384C145.611 96.7936 144.893 96.9131 144.654 96.7424C144.585 96.7083 144.517 96.623 144.449 96.4864C144.38 96.3499 144.329 96.1963 144.295 96.0256C144.295 95.855 144.295 95.7014 144.295 95.5648C144.295 95.3942 144.312 95.2576 144.346 95.1552C144.38 95.0187 144.432 94.9504 144.5 94.9504C144.534 94.9504 145.714 94.6774 148.038 94.1312C150.329 93.5168 152.09 93.1414 153.32 93.0048Z" fill="#29363D"/>
<path d="M108.615 75.5456C108.615 74.9312 108.632 74.4704 108.667 74.1632C108.701 73.856 108.769 73.6342 108.872 73.4976C108.974 73.327 109.094 73.2587 109.231 73.2928C109.367 73.327 109.573 73.4294 109.846 73.6C110.188 73.8731 110.479 76.4502 110.718 81.3312C110.991 86.1782 110.957 88.7723 110.615 89.1136C110.479 89.2502 110.325 89.3184 110.154 89.3184C110.017 89.3184 109.863 89.2672 109.692 89.1648C109.556 89.0624 109.419 88.9259 109.282 88.7552C109.145 88.5504 109.026 88.3286 108.923 88.0896C108.855 87.8166 108.82 87.5435 108.82 87.2704C108.82 86.6219 108.769 84.8299 108.667 81.8944C108.598 78.6859 108.581 76.5696 108.615 75.5456ZM91.3846 88.3456C91.0769 88.1408 90.9572 86.3659 91.0256 83.0208C91.1282 79.6758 91.3333 77.9008 91.641 77.696C91.9829 77.4912 93.6068 77.3718 96.5128 77.3376C99.453 77.2694 100.974 77.3376 101.077 77.5424C101.214 77.7814 101.197 79.6075 101.026 83.0208C100.855 86.4 100.684 88.1579 100.513 88.2944C100.342 88.4992 98.8376 88.6187 96 88.6528C93.1965 88.6528 91.6581 88.5504 91.3846 88.3456ZM96.2564 79.2832C94.376 79.2832 93.3675 79.3686 93.2307 79.5392C93.0256 79.7099 92.923 80.7851 92.923 82.7648C92.923 83.9936 92.9743 84.8128 93.0769 85.2224C93.1795 85.632 93.3846 85.9222 93.6923 86.0928C94.2393 86.4 95.094 86.5536 96.2564 86.5536C97.453 86.5195 98.2051 86.3488 98.5128 86.0416C98.8205 85.7344 98.9743 84.5398 98.9743 82.4576V79.2832H96.2564ZM102.82 94.0288C103.47 93.824 103.966 93.6875 104.308 93.6192C104.65 93.5168 104.991 93.4486 105.333 93.4144C105.675 93.3803 105.914 93.3974 106.051 93.4656C106.222 93.4998 106.359 93.6363 106.461 93.8752C106.598 94.08 106.684 94.3019 106.718 94.5408C106.752 94.7798 106.803 95.1552 106.872 95.6672C107.009 97.1008 107.145 98.2955 107.282 99.2512C107.419 100.105 107.179 100.736 106.564 101.146C105.983 101.521 104.684 101.948 102.667 102.426C100.752 102.869 99.6581 103.33 99.3846 103.808C99.0769 104.354 98.9401 104.952 98.9743 105.6C99.0427 106.283 99.2478 106.709 99.5897 106.88C99.8974 107.085 100.991 107.119 102.872 106.982C104.752 106.88 106.188 106.692 107.179 106.419C107.726 106.283 108.034 106.266 108.103 106.368C108.205 106.47 108.239 106.829 108.205 107.443L108.051 108.826L103.795 109.082C100.889 109.286 99.2307 109.457 98.8205 109.594C98.376 109.696 98.0171 109.662 97.7436 109.491C97.47 109.321 97.2649 108.979 97.1282 108.467C97.0256 107.989 96.9743 107.273 96.9743 106.317C96.9743 104.576 97.1111 103.484 97.3846 103.04C97.5897 102.63 98.1025 102.204 98.923 101.76C99.7436 101.282 100.376 101.043 100.82 101.043C101.231 101.043 101.966 100.804 103.026 100.326C103.778 100.019 104.222 99.7632 104.359 99.5584C104.53 99.3195 104.615 98.7734 104.615 97.92C104.615 96.7254 104.444 96.0768 104.103 95.9744C103.761 95.8038 102.547 96.0598 100.462 96.7424C98 97.5275 96.6324 97.8176 96.3589 97.6128C96.2564 97.5104 96.2051 97.3056 96.2051 96.9984C96.2051 96.623 96.6495 96.2475 97.5384 95.872C98.4273 95.4624 100.188 94.848 102.82 94.0288Z" fill="#29363D"/>
<path d="M59.5 78.5664C59.9444 78.6005 60.2179 78.8224 60.3205 79.232C60.4231 79.6074 60.5427 80.6997 60.6795 82.5088C60.8504 85.137 60.953 89.4208 60.9872 95.36C61.0214 101.265 60.9701 104.337 60.8333 104.576C60.7308 104.747 60.5256 104.866 60.2179 104.934C59.9444 105.003 59.6709 105.02 59.3974 104.986C59.1239 104.951 58.9872 104.849 58.9872 104.678C58.9872 103.791 58.9359 99.3877 58.8333 91.4688L58.5769 78.4128L59.5 78.5664ZM41.4487 87.2192C41.2778 84.7957 41.2949 83.5157 41.5 83.3792C41.5684 83.345 41.7051 83.345 41.9102 83.3792C42.2179 83.4133 42.4402 83.6352 42.5769 84.0448C42.7478 84.4544 42.9017 85.2565 43.0384 86.4512L43.4487 89.3696L44.8846 89.1136C45.0555 89.0794 45.2949 89.0453 45.6026 89.0112C47.0726 88.7722 47.9273 88.5504 48.1667 88.3456C48.406 88.1408 48.5427 87.5264 48.5769 86.5024C48.6111 86.4341 48.6282 86.3829 48.6282 86.3488C48.6282 86.2805 48.6282 86.2293 48.6282 86.1952C48.6282 86.1269 48.6282 86.0586 48.6282 85.9904C48.6966 84.8981 48.7649 84.2154 48.8333 83.9424C48.9359 83.6693 49.1752 83.5328 49.5513 83.5328C49.9273 83.5328 50.1496 83.857 50.2179 84.5056C50.3205 85.1541 50.406 87.1168 50.4743 90.3936C50.5085 93.4997 50.4914 95.4453 50.4231 96.2304C50.3547 97.0154 50.1667 97.5616 49.859 97.8688C49.4487 98.2101 48.3718 98.4661 46.6282 98.6368C44.9188 98.8074 43.7051 98.7733 42.9872 98.5344C42.5769 98.3637 42.3034 97.8688 42.1667 97.0496C42.0641 96.1962 41.8419 93.2949 41.5 88.3456C41.4658 87.8336 41.4487 87.4581 41.4487 87.2192ZM47.2436 91.008C46.3205 91.008 45.6538 91.0933 45.2436 91.264C44.8333 91.4005 44.5427 91.6736 44.3718 92.0832C44.2008 92.4586 44.1154 93.073 44.1154 93.9264C44.1154 95.0869 44.2692 95.8208 44.5769 96.128C44.9188 96.4352 45.7222 96.5888 46.9872 96.5888C47.6367 96.5888 48.047 96.3669 48.2179 95.9232C48.4231 95.4794 48.5256 94.5408 48.5256 93.1072V90.9568L47.2436 91.008Z" fill="#29363D"/>
<path d="M222.064 16.448C224.697 15.9701 226.372 15.7483 227.09 15.7824L228.115 15.8848V20.6976C228.115 21.9605 228.081 22.9675 228.013 23.7184C227.979 24.4693 227.893 25.0837 227.756 25.5616C227.654 26.0395 227.5 26.3296 227.295 26.432C227.09 26.5003 226.816 26.4832 226.474 26.3808C226.201 26.2784 226.03 26.0053 225.962 25.5616C225.927 25.0837 225.962 24.0085 226.064 22.336C226.167 20.6293 226.184 19.5371 226.115 19.0592C226.081 18.5813 225.927 18.2912 225.654 18.1888C225.107 18.0181 223.603 18.1717 221.141 18.6496C219.568 18.8885 218.509 19.0251 217.962 19.0592C217.449 19.0592 217.107 18.9739 216.936 18.8032C216.594 18.2229 216.662 17.8133 217.141 17.5744C217.722 17.3013 219.363 16.9259 222.064 16.448ZM230.68 29.9136C230.987 29.6064 231.38 29.5893 231.859 29.8624C232.338 30.1013 232.611 30.4939 232.68 31.04C232.68 31.0741 232.68 31.1083 232.68 31.1424C232.748 31.7568 232.474 32.1323 231.859 32.2688C231.244 32.4053 229.038 32.6272 225.244 32.9344C224.731 32.9685 224.338 32.9856 224.064 32.9856C219.312 33.3611 216.509 33.5488 215.654 33.5488C214.833 33.5147 214.423 33.2587 214.423 32.7808C214.423 32.3029 214.885 31.9616 215.808 31.7568C216.731 31.552 218.748 31.3472 221.859 31.1424C224.047 31.0059 226.013 30.8181 227.756 30.5792C229.534 30.3061 230.509 30.0843 230.68 29.9136ZM218.423 38.5664C218.628 38.2251 218.936 38.2592 219.346 38.6688C219.791 39.1467 219.996 40.1536 219.962 41.6896C219.962 41.792 219.962 41.9285 219.962 42.0992C219.962 42.816 219.944 43.3109 219.91 43.584C219.91 43.8571 219.962 44.1643 220.064 44.5056C220.201 44.8469 220.303 45.0517 220.372 45.12C220.474 45.1883 220.731 45.2736 221.141 45.376C221.551 45.4443 221.927 45.4613 222.269 45.4272C222.611 45.3931 223.192 45.3589 224.013 45.3248C224.218 45.3248 224.372 45.3077 224.474 45.2736C227.073 45.1029 228.782 44.9323 229.603 44.7616C230.15 44.6592 230.474 44.6592 230.577 44.7616C230.68 44.864 230.731 45.1883 230.731 45.7344C230.731 46.4512 230.526 46.8949 230.115 47.0656C229.705 47.2704 228.748 47.3557 227.244 47.3216C225.808 47.3216 223.91 47.424 221.551 47.6288C219.124 47.8336 217.859 47.7995 217.756 47.5264C217.62 47.2875 217.654 45.8027 217.859 43.072C218.064 40.3413 218.252 38.8395 218.423 38.5664Z" fill="#29363D"/>
<path d="M167.667 19.008C167.906 18.4277 168.111 18.0864 168.282 17.984C168.453 17.8474 168.727 17.8645 169.103 18.0352C169.615 18.3082 171.342 18.2912 174.282 17.984C177.462 17.6768 179.205 17.745 179.513 18.1888C179.615 18.3936 179.598 18.6666 179.462 19.008C179.393 19.2128 179.222 19.3664 178.949 19.4688C178.709 19.537 178.316 19.5882 177.769 19.6224C177.256 19.6565 176.487 19.6906 175.462 19.7248C172.863 19.7589 171.222 19.8613 170.538 20.032C169.957 20.1344 169.598 20.3392 169.462 20.6464C169.359 20.9194 169.274 21.7045 169.205 23.0016C169.137 24.2986 169.137 25.0837 169.205 25.3568C169.308 25.6298 169.615 25.8346 170.128 25.9712C170.709 26.1077 172.453 26.1248 175.359 26.0224C177.205 25.9541 178.402 25.9541 178.949 26.0224C179.496 26.0565 179.855 26.2272 180.026 26.5344C180.333 27.1488 180.043 27.5584 179.154 27.7632C178.368 27.968 176.641 28.1045 173.974 28.1728C170.59 28.3093 168.59 28.1898 167.974 27.8144C167.393 27.4048 167.103 26.0394 167.103 23.7184C167.103 21.568 167.291 19.9978 167.667 19.008ZM180.59 33.9584C181.171 33.7536 181.889 33.7024 182.744 33.8048C183.632 33.9072 184.128 34.0949 184.231 34.368C184.402 34.7776 184.385 35.1189 184.18 35.392C184.009 35.6309 183.615 35.8016 183 35.904C182.419 36.0064 181.598 36.0576 180.538 36.0576C178.521 36.0576 177.359 36.1941 177.051 36.4672C176.744 36.8085 176.556 38.737 176.487 42.2528C176.419 45.7344 176.299 47.5946 176.128 47.8336C175.957 48.0725 175.615 48.192 175.103 48.192C174.624 48.192 174.316 48.0725 174.18 47.8336C174.111 47.7312 174.111 46.929 174.18 45.4272C174.248 43.9253 174.368 42.3381 174.538 40.6656C174.709 38.993 174.846 37.9008 174.949 37.3888L175.205 36.4672L171.667 36.7744C168.59 37.0133 166.692 37.1328 165.974 37.1328C165.256 37.0986 164.846 36.8938 164.744 36.5184C164.709 36.2453 164.829 36.0234 165.103 35.8528C165.376 35.648 165.872 35.4602 166.59 35.2896C167.308 35.1189 168.231 34.9824 169.359 34.88C170.521 34.7434 171.974 34.624 173.718 34.5216C178.094 34.2826 180.385 34.0949 180.59 33.9584Z" fill="#29363D"/>
<path d="M118.09 21.6192C118.603 21.5168 119.013 21.4827 119.321 21.5168C119.628 21.5168 120.107 21.6363 120.756 21.8752C121.098 21.9776 121.389 22.0971 121.628 22.2336C121.868 22.3702 122.107 22.5408 122.346 22.7456C122.586 22.9504 122.876 23.2406 123.218 23.616C124.073 24.5035 124.705 25.2374 125.115 25.8176C125.457 26.3296 125.765 26.6027 126.039 26.6368C126.346 26.6368 126.568 26.3979 126.705 25.92C127.047 24.9643 127.697 24.0256 128.654 23.104C129.611 22.1824 130.791 21.7046 132.192 21.6704C133.594 21.6022 134.517 22.0118 134.962 22.8992C135.167 23.3088 135.355 23.616 135.526 23.8208C135.731 24.128 136.021 25.0496 136.398 26.5856C136.5 27.2 136.432 27.8656 136.192 28.5824C136.021 29.1286 135.731 30.1184 135.321 31.552C134.432 34.624 133.526 36.7062 132.603 37.7984C132.295 38.208 131.868 38.7542 131.321 39.4368C130.945 39.9488 130.517 40.3584 130.039 40.6656C129.457 41.007 128.363 41.9115 126.756 43.3792C125.936 44.096 125.184 44.3008 124.5 43.9936C124.158 43.8571 123.987 43.7206 123.987 43.584C123.987 43.4816 123.372 42.7819 122.141 41.4848C120.91 40.1878 120.124 39.2662 119.782 38.72C119.406 38.1056 118.791 37.3035 117.936 36.3136C117.526 35.8016 117.201 35.4091 116.962 35.136C116.756 34.863 116.551 34.5728 116.346 34.2656C116.141 33.9584 115.953 33.6683 115.782 33.3952C115.645 33.1222 115.457 32.7296 115.218 32.2176C114.466 30.8182 114.004 29.3504 113.833 27.8144C113.765 26.9952 113.919 26.1419 114.295 25.2544C114.671 24.367 115.201 23.599 115.885 22.9504C116.603 22.2678 117.338 21.824 118.09 21.6192Z" fill="#FF4F6E"/>
<path d="M73.0257 16.448C75.6581 15.9701 77.3334 15.7483 78.0513 15.7824L79.0769 15.8848V20.6976C79.0769 21.9605 79.0428 22.9675 78.9744 23.7184C78.9402 24.4693 78.8547 25.0837 78.718 25.5616C78.6154 26.0395 78.4616 26.3296 78.2564 26.432C78.0513 26.5003 77.7778 26.4832 77.4359 26.3808C77.1624 26.2784 76.9915 26.0053 76.9231 25.5616C76.8889 25.0837 76.9231 24.0085 77.0257 22.336C77.1282 20.6293 77.1453 19.5371 77.0769 19.0592C77.0428 18.5813 76.8889 18.2912 76.6154 18.1888C76.0684 18.0181 74.5641 18.1717 72.1026 18.6496C70.5299 18.8885 69.4701 19.0251 68.9231 19.0592C68.4103 19.0592 68.0684 18.9739 67.8975 18.8032C67.5556 18.2229 67.624 17.8133 68.1026 17.5744C68.6838 17.3013 70.3248 16.9259 73.0257 16.448ZM81.6411 29.9136C81.9487 29.6064 82.3419 29.5893 82.8205 29.8624C83.2992 30.1013 83.5727 30.4939 83.641 31.04C83.641 31.0741 83.641 31.1083 83.641 31.1424C83.7094 31.7568 83.4359 32.1323 82.8205 32.2688C82.2052 32.4053 80 32.6272 76.2052 32.9344C75.6923 32.9685 75.2992 32.9856 75.0257 32.9856C70.2735 33.3611 67.4701 33.5488 66.6154 33.5488C65.7949 33.5147 65.3846 33.2587 65.3846 32.7808C65.3846 32.3029 65.8462 31.9616 66.7693 31.7568C67.6923 31.552 69.7094 31.3472 72.8205 31.1424C75.0086 31.0059 76.9744 30.8181 78.718 30.5792C80.4958 30.3061 81.4701 30.0843 81.6411 29.9136ZM69.3846 38.5664C69.5898 38.2251 69.8975 38.2592 70.3077 38.6688C70.7522 39.1467 70.9573 40.1536 70.9231 41.6896C70.9231 41.792 70.9231 41.9285 70.9231 42.0992C70.9231 42.816 70.906 43.3109 70.8718 43.584C70.8718 43.8571 70.9231 44.1643 71.0257 44.5056C71.1624 44.8469 71.265 45.0517 71.3334 45.12C71.4359 45.1883 71.6923 45.2736 72.1026 45.376C72.5128 45.4443 72.8889 45.4613 73.2308 45.4272C73.5727 45.3931 74.1539 45.3589 74.9744 45.3248C75.1795 45.3248 75.3334 45.3077 75.4359 45.2736C78.0342 45.1029 79.7436 44.9323 80.5641 44.7616C81.1111 44.6592 81.4359 44.6592 81.5385 44.7616C81.6411 44.864 81.6923 45.1883 81.6923 45.7344C81.6923 46.4512 81.4872 46.8949 81.0769 47.0656C80.6667 47.2704 79.7094 47.3557 78.2052 47.3216C76.7693 47.3216 74.8718 47.424 72.5128 47.6288C70.0855 47.8336 68.8205 47.7995 68.718 47.5264C68.5812 47.2875 68.6154 45.8027 68.8205 43.072C69.0257 40.3413 69.2137 38.8395 69.3846 38.5664Z" fill="#29363D"/>
<path d="M18.6282 19.008C18.8676 18.4277 19.0727 18.0864 19.2436 17.984C19.4146 17.8474 19.6881 17.8645 20.0641 18.0352C20.577 18.3082 22.3035 18.2912 25.2436 17.984C28.4231 17.6768 30.1667 17.745 30.4744 18.1888C30.577 18.3936 30.5599 18.6666 30.4231 19.008C30.3547 19.2128 30.1838 19.3664 29.9103 19.4688C29.671 19.537 29.2778 19.5882 28.7308 19.6224C28.218 19.6565 27.4488 19.6906 26.4231 19.7248C23.8248 19.7589 22.1838 19.8613 21.5 20.032C20.9188 20.1344 20.5599 20.3392 20.4231 20.6464C20.3205 20.9194 20.2351 21.7045 20.1667 23.0016C20.0983 24.2986 20.0983 25.0837 20.1667 25.3568C20.2693 25.6298 20.577 25.8346 21.0898 25.9712C21.671 26.1077 23.4146 26.1248 26.3205 26.0224C28.1667 25.9541 29.3633 25.9541 29.9103 26.0224C30.4573 26.0565 30.8163 26.2272 30.9872 26.5344C31.2949 27.1488 31.0043 27.5584 30.1154 27.7632C29.3291 27.968 27.6026 28.1045 24.9359 28.1728C21.5513 28.3093 19.5513 28.1898 18.9359 27.8144C18.3547 27.4048 18.0641 26.0394 18.0641 23.7184C18.0641 21.568 18.2522 19.9978 18.6282 19.008ZM31.5513 33.9584C32.1325 33.7536 32.8505 33.7024 33.7052 33.8048C34.594 33.9072 35.0898 34.0949 35.1923 34.368C35.3633 34.7776 35.3462 35.1189 35.1411 35.392C34.9701 35.6309 34.577 35.8016 33.9616 35.904C33.3804 36.0064 32.5599 36.0576 31.5 36.0576C29.4829 36.0576 28.3205 36.1941 28.0129 36.4672C27.7052 36.8085 27.5171 38.737 27.4488 42.2528C27.3804 45.7344 27.2607 47.5946 27.0898 47.8336C26.9188 48.0725 26.577 48.192 26.0641 48.192C25.5855 48.192 25.2778 48.0725 25.1411 47.8336C25.0727 47.7312 25.0727 46.929 25.1411 45.4272C25.2094 43.9253 25.3291 42.3381 25.5 40.6656C25.671 38.993 25.8077 37.9008 25.9103 37.3888L26.1667 36.4672L22.6282 36.7744C19.5513 37.0133 17.6539 37.1328 16.9359 37.1328C16.218 37.0986 15.8077 36.8938 15.7052 36.5184C15.671 36.2453 15.7906 36.0234 16.0641 35.8528C16.3376 35.648 16.8334 35.4602 17.5513 35.2896C18.2693 35.1189 19.1923 34.9824 20.3205 34.88C21.4829 34.7434 22.9359 34.624 24.6795 34.5216C29.0556 34.2826 31.3462 34.0949 31.5513 33.9584Z" fill="#29363D"/>
<path fill-rule="evenodd" clip-rule="evenodd" d="M7.51019e-06 56H51.2821V4.79999H7.51019e-06V6.39999H49.6795V54.4H7.51019e-06V56Z" fill="#677880"/>
<path fill-rule="evenodd" clip-rule="evenodd" d="M99.359 6.39999H51.2821V54.4H99.359V6.39999ZM49.6795 4.79999V56H100.962V4.79999H49.6795Z" fill="#677880"/>
<path fill-rule="evenodd" clip-rule="evenodd" d="M149.038 6.39999H100.962V54.4H149.038V6.39999ZM99.359 4.79999V56H150.641V4.79999H99.359Z" fill="#677880"/>
<path fill-rule="evenodd" clip-rule="evenodd" d="M198.718 6.39999H150.641V54.4H198.718V6.39999ZM149.038 4.79999V56H200.321V4.79999H149.038Z" fill="#677880"/>
<path fill-rule="evenodd" clip-rule="evenodd" d="M250 4.79999H198.718V56H250V54.4H200.321V6.39999H250V4.79999Z" fill="#677880"/>
<path fill-rule="evenodd" clip-rule="evenodd" d="M25.641 65.6H-22.4359V113.6H25.641V65.6ZM-24.0385 64V115.2H27.2436V64H-24.0385Z" fill="#677880"/>
<path fill-rule="evenodd" clip-rule="evenodd" d="M75.3205 65.6H27.2436V113.6H75.3205V65.6ZM25.641 64V115.2H76.9231V64H25.641Z" fill="#677880"/>
<path fill-rule="evenodd" clip-rule="evenodd" d="M125 65.6H76.9231V113.6H125V65.6ZM75.3205 64V115.2H126.603V64H75.3205Z" fill="#677880"/>
<path fill-rule="evenodd" clip-rule="evenodd" d="M174.679 65.6H126.603V113.6H174.679V65.6ZM125 64V115.2H176.282V64H125Z" fill="#677880"/>
<path fill-rule="evenodd" clip-rule="evenodd" d="M224.359 65.6H176.282V113.6H224.359V65.6ZM174.679 64V115.2H225.962V64H174.679Z" fill="#677880"/>
<path fill-rule="evenodd" clip-rule="evenodd" d="M274.038 65.6H225.962V113.6H274.038V65.6ZM224.359 64V115.2H275.641V64H224.359Z" fill="#677880"/>
<path fill-rule="evenodd" clip-rule="evenodd" d="M250 1.6H0V0H250V1.6ZM250 6.4H0V4.8H250V6.4Z" fill="#677880"/>
<path fill-rule="evenodd" clip-rule="evenodd" d="M250 115.2H0V113.6H250V115.2ZM250 120H0V118.4H250V120Z" fill="#677880"/>
<path fill-rule="evenodd" clip-rule="evenodd" d="M250 56H0V54.4H250V56ZM250 60.8H0V59.2H250V60.8ZM250 65.6H0V64H250V65.6Z" fill="#677880"/>
</g>
<defs>
<clipPath id="clip0_73192_4222">
<rect width="250" height="120" fill="white"/>
</clipPath>
</defs>
</svg>
