<svg width="58" height="45" viewBox="0 0 58 45" fill="none" xmlns="http://www.w3.org/2000/svg">
<rect x="1.31231" y="20.5497" width="49" height="25" transform="rotate(-23.1164 1.31231 20.5497)" stroke="#EAE8FE" stroke-width="2"/>
<rect x="5.24981" y="22.1311" width="43" height="19" transform="rotate(-23.1164 5.24981 22.1311)" stroke="#EAE8FE" stroke-width="2"/>
<path d="M23.325 21.8803L21.1618 22.8037L20.5407 21.3487L22.7039 20.4253L23.325 21.8803ZM19.0888 23.6886L17.8141 24.2327L18.5066 25.8551L27.3524 22.0791L26.6598 20.4567L25.398 20.9953L24.7769 19.5404L26.1675 18.9468L25.475 17.3244L16.3846 21.2048L17.0771 22.8272L18.4677 22.2336L19.0888 23.6886ZM27.3544 28.3954L23.0409 30.2367L22.7056 29.4513L27.0191 27.61L27.3544 28.3954ZM29.3371 23.8044L28.6446 22.182L17.7129 26.8485L18.4054 28.4708L22.8348 26.5801L23.1646 27.3526L19.9713 28.7157L21.6807 32.7201L30.0887 29.131L28.3793 25.1266L25.2505 26.4622L24.9207 25.6897L29.3371 23.8044ZM34.7633 15.7646L35.4613 17.3998L37.0064 16.7402L37.9078 18.8519L39.9937 17.9615L37.3994 11.884L35.3135 12.7745L36.3084 15.105L34.7633 15.7646ZM36.4094 17.6953C34.4549 17.9664 33.3089 17.2074 32.7295 16.2065L34.8926 15.2831L34.2001 13.6607L27.6849 16.4419L28.3774 18.0643L30.5534 17.1354C30.8864 18.2719 30.6452 19.7753 29.0587 21.1224L30.7169 22.3325C31.9481 21.3655 32.5051 20.1383 32.6116 18.8902C33.5169 19.5846 34.7003 19.9319 36.1363 19.7299L36.4094 17.6953ZM35.7981 24.8215L35.6222 24.4094L41.6481 21.8371L40.1751 18.3864L32.0761 21.8436L32.7467 23.4145L38.7855 20.8367L38.9559 21.2358L32.93 23.8081L34.414 27.2846L42.7962 23.7065L42.1202 22.1227L35.7981 24.8215Z" fill="#EAE8FE"/>
</svg>
