<svg width="130" height="40" viewBox="0 0 130 40" fill="none" xmlns="http://www.w3.org/2000/svg">
<path d="M99.1311 28.4266C99.0175 28.7422 98.8962 29.0521 98.7637 29.3657C98.8944 29.0521 99.0175 28.7459 99.1311 28.4266Z" fill="#263140"/>
<path d="M100.175 24.0222C100.137 24.3584 100.088 24.6909 100.029 25.0233C100.086 24.6909 100.135 24.3584 100.175 24.0222Z" fill="#263140"/>
<path d="M100.317 20.8574C100.317 20.5344 100.29 20.2132 100.266 19.8901C100.292 20.2038 100.309 20.525 100.317 20.8574Z" fill="#263140"/>
<path d="M100.32 22.0013C100.32 21.7252 100.32 21.4472 100.32 21.1711C100.33 21.4472 100.328 21.7233 100.32 22.0013Z" fill="#263140"/>
<path d="M130 8.78039V24.5218C130 32.5568 122.629 39.3429 113.902 39.3429C108.084 39.3429 102.87 36.3095 100.052 31.8995C102.01 28.2745 102.881 23.9471 102.514 19.5445C102.144 15.0893 100.531 10.946 97.9399 7.74548C98.1849 6.43197 98.8856 5.24488 99.9206 4.39C100.956 3.53512 102.26 3.06635 103.607 3.06495C105.134 3.06694 106.599 3.6698 107.679 4.74127C108.759 5.81275 109.366 7.26534 109.368 8.78039V24.5218C109.368 26.092 111.347 27.9157 113.9 27.9157C116.207 27.9157 118.47 26.2347 118.47 24.5218V8.78039C118.471 8.02892 118.621 7.28497 118.911 6.59102C119.202 5.89706 119.628 5.26671 120.164 4.73595C120.701 4.2052 121.337 3.78446 122.038 3.49774C122.738 3.21102 123.489 3.06396 124.246 3.06495C125.773 3.06892 127.235 3.67266 128.314 4.74392C129.392 5.81518 129.999 7.26664 130 8.78039Z" fill="#263140"/>
<path d="M29.9297 11.7104C28.4198 14.6508 27.6369 17.9052 27.6456 21.2049C27.6404 25.4435 28.9336 29.5836 31.3539 33.0771V33.3964C31.3524 34.9118 30.7447 36.3647 29.6642 37.4362C28.5838 38.5077 27.1187 39.1104 25.5907 39.1119C24.063 39.1099 22.5985 38.507 21.5184 37.4355C20.4383 36.3641 19.8309 34.9115 19.8294 33.3964V26.9184H11.5284V33.3964C11.5274 34.9116 10.9202 36.3645 9.83998 37.4361C8.75981 38.5077 7.29499 39.1104 5.76714 39.1119C4.23944 39.1099 2.77491 38.507 1.69484 37.4355C0.614774 36.3641 0.00736269 34.9115 0.00585938 33.3964V9.01141C0.0078638 7.49669 0.615499 6.04458 1.69551 4.97351C2.77553 3.90244 4.23977 3.29984 5.76714 3.29785C7.29466 3.29934 8.75919 3.90178 9.83931 4.97296C10.9194 6.04414 11.5269 7.49654 11.5284 9.01141V15.4894H19.8294V9.01141C19.8314 7.49669 20.4391 6.04458 21.5191 4.97351C22.5991 3.90244 24.0634 3.29984 25.5907 3.29785C27.1184 3.29934 28.5831 3.90172 29.6636 4.97285C30.744 6.04397 31.3519 7.49637 31.3539 9.01141V9.33635C30.8269 10.0957 30.3511 10.8888 29.9297 11.7104Z" fill="#263140"/>
<path d="M81.173 14.6763C80.9173 14.6763 80.6578 14.6763 80.3965 14.6763C80.7241 14.6763 81.048 14.6763 81.3662 14.6763H81.173ZM90.385 37.9249C90.6331 37.8179 90.8774 37.7071 91.116 37.5887C90.8774 37.7052 90.6331 37.8179 90.385 37.9249ZM98.7636 29.3584C98.8962 29.0522 99.0174 28.7423 99.1311 28.4192C99.0174 28.7461 98.8943 29.0522 98.7636 29.3584ZM100.029 25.0234C100.087 24.691 100.137 24.3585 100.175 24.0223C100.135 24.3585 100.086 24.691 100.029 25.0234ZM100.266 19.8808C100.29 20.2039 100.307 20.5251 100.317 20.8481C100.309 20.5251 100.292 20.2039 100.266 19.8808ZM100.324 21.1712C100.324 21.4473 100.324 21.7253 100.324 22.0013C100.328 21.7234 100.33 21.4473 100.324 21.1712Z" fill="#263140"/>
<path d="M100.324 21.1711C100.292 17.8275 99.4341 14.5425 97.8261 11.6035C97.413 10.8662 96.9478 10.1588 96.434 9.48669C96.2238 9.21623 96.0098 8.9514 95.7844 8.69408C94.776 7.53318 93.5997 6.52681 92.2939 5.70771C91.909 5.4652 91.5121 5.24204 91.1046 5.03906C90.7428 4.85124 90.3697 4.68595 89.9928 4.53006C88.2284 3.82103 86.355 3.41516 84.4531 3.32987C82.3585 3.29794 80.0782 3.31672 77.9305 3.27915C75.565 3.29793 73.1635 3.17773 70.8208 3.482C68.1219 4.13375 66.2867 6.74636 66.4894 9.49233C71.3056 16.2915 71.2109 26.2574 66.4894 32.927C66.4279 33.9415 66.6232 34.9552 67.0576 35.8758C67.5283 36.8454 68.2653 37.6636 69.184 38.2364C70.1026 38.8091 71.1656 39.1133 72.2507 39.1138H76.8472C83.0668 39.1138 86.1274 39.1796 87.7391 38.819C90.8543 38.0764 93.6681 36.4119 95.8072 34.0464C95.9965 33.8435 96.1708 33.6351 96.3431 33.4209C96.5155 33.2068 96.6537 33.0265 96.8052 32.8255C99.2579 29.4767 100.383 25.2845 100.324 21.1711ZM88.919 21.7966C88.8054 23.0212 88.5402 24.2665 87.866 25.3107C87.654 25.6443 87.3993 25.9492 87.1084 26.2179C86.5405 26.7194 85.867 27.089 85.1369 27.2998C82.8111 27.9722 80.4134 27.6754 78.0082 27.6905V14.7307C78.8055 14.7307 79.6085 14.6988 80.404 14.6875C83.4607 14.6086 87.2126 14.7758 88.3925 18.1378C88.8214 19.3081 89.0007 20.554 88.919 21.7966Z" fill="#263140"/>
<path d="M59.4952 0.544434C59.5497 0.612635 59.5978 0.685559 59.6391 0.762314C59.5981 0.68542 59.5499 0.612475 59.4952 0.544434ZM37.9766 1.01024C38.0004 0.924027 38.0328 0.840351 38.0732 0.760434C38.032 0.839997 37.9996 0.923757 37.9766 1.01024Z" fill="#263140"/>
<path d="M66.4818 14.2836C65.2027 11.1003 63.0743 8.32209 60.3247 6.2467C60.3398 6.14528 59.8058 1.38398 59.8039 1.28068C59.766 0.930834 59.599 0.607228 59.3351 0.372139C59.0711 0.137049 58.7288 0.00708014 58.374 0.00723521C57.713 -0.163683 54.2812 2.74756 53.7168 3.03305C50.5362 2.20288 47.1931 2.20288 44.0124 3.03305C43.4215 2.73066 40.0352 -0.148658 39.3553 0.00723521C39.0006 0.00786131 38.6584 0.138055 38.3943 0.372953C38.1302 0.60785 37.9626 0.930998 37.9235 1.28068C37.9235 1.38586 37.3951 6.13965 37.4027 6.24483C23.134 16.8812 30.7304 39.9965 48.8684 39.9965C62.0576 40.2539 71.5026 26.0996 66.4818 14.2836ZM48.8684 28.5581C39.1337 28.3872 39.1034 14.047 48.8305 13.8329C58.605 13.97 58.641 28.391 48.8684 28.5675V28.5581Z" fill="#263140"/>
</svg>
